<?xml version="1.0" encoding="iso-8859-1"?>
<!-- Generator: Adobe Illustrator 19.0.0, SVG Export Plug-In . SVG Version: 6.00 Build 0)  -->
<svg version="1.1" id="Layer_1" xmlns="http://www.w3.org/2000/svg" xmlns:xlink="http://www.w3.org/1999/xlink" x="0px" y="0px"
	 viewBox="0 0 392.598 392.598" style="enable-background:new 0 0 392.598 392.598;" xml:space="preserve">
<g>
	<path style="fill:#FFFFFF;" d="M207.224,23.79v56.048c13.899-0.259,27.798-1.099,41.697-2.392
		C238.772,49.778,223.968,29.867,207.224,23.79z"/>
	<path style="fill:#FFFFFF;" d="M207.224,206.028c16.873,0.646,33.681,2.715,50.489,6.206c2.521-12.929,4.073-26.634,4.655-40.663
		h-55.079L207.224,206.028L207.224,206.028z"/>
	<path style="fill:#FFFFFF;" d="M250.085,32.582c8.339,11.572,15.515,25.859,21.075,42.279c10.15-1.422,20.105-3.103,30.061-5.042
		C287.321,53.851,269.867,41.05,250.085,32.582z"/>
	<path style="fill:#FFFFFF;" d="M255.321,98.78c-15.968,1.616-32.065,2.521-48.162,2.844v48.097h55.079
		C261.592,131.685,259.135,114.36,255.321,98.78z"/>
	<path style="fill:#FFFFFF;" d="M269.737,250.117h32.582c0.323-0.388,0.711-0.84,1.034-1.228
		c-9.891-4.008-19.846-7.499-29.802-10.343C272.323,242.489,271.095,246.368,269.737,250.117z"/>
	<path style="fill:#FFFFFF;" d="M115.426,96.129c-12.8-1.745-25.6-4.073-38.141-6.788c-10.731,17.907-17.648,38.465-19.329,60.444
		h50.554C109.156,130.715,111.547,112.679,115.426,96.129z"/>
	<path style="fill:#FFFFFF;" d="M334.707,171.572h-50.554c-0.517,15.774-2.327,31.224-5.236,45.899
		c12.541,3.556,24.954,7.952,37.301,13.188C326.626,212.622,333.026,192.453,334.707,171.572z"/>
	<path style="fill:#FFFFFF;" d="M284.154,149.721h50.554c-1.681-21.915-8.469-42.473-19.329-60.444
		c-12.671,2.651-25.341,4.978-38.141,6.788C281.051,112.679,283.442,130.715,284.154,149.721z"/>
	<path style="fill:#FFFFFF;" d="M185.374,250.117v-22.562c-15.063,0.646-30.125,2.521-45.188,5.689
		c1.745,5.947,3.879,11.507,6.077,16.937h39.111V250.117z"/>
	<path style="fill:#FFFFFF;" d="M185.374,101.624c-16.097-0.323-32.129-1.228-48.162-2.844c-3.879,15.709-6.271,32.905-7.046,51.071
		h55.143v-48.226H185.374z"/>
	<path style="fill:#FFFFFF;" d="M143.677,77.446c13.834,1.293,27.733,2.069,41.697,2.392V23.79
		C168.63,29.867,153.826,49.778,143.677,77.446z"/>
	<path style="fill:#FFFFFF;" d="M142.513,32.582c-19.782,8.339-37.236,21.204-51.135,37.236c9.956,1.939,20.04,3.685,30.061,5.042
		C126.998,58.57,134.174,44.283,142.513,32.582z"/>
	<path style="fill:#FFFFFF;" d="M252.412,233.18c-15.063-3.168-30.125-5.107-45.188-5.689v22.562h39.111
		C248.533,244.687,250.602,239.127,252.412,233.18z"/>
	<path style="fill:#FFFFFF;" d="M122.861,250.117c-1.422-3.814-2.651-7.628-3.879-11.572c-9.956,2.909-19.846,6.4-29.802,10.408
		c0.323,0.388,0.711,0.776,1.034,1.228h32.711v-0.065H122.861z"/>
	<path style="fill:#FFFFFF;" d="M57.891,171.572c1.616,20.945,7.952,41.051,18.489,59.022c12.347-5.172,24.824-9.568,37.301-13.123
		c-2.909-14.61-4.719-30.061-5.236-45.834H57.891V171.572z"/>
	<path style="fill:#FFFFFF;" d="M185.374,171.572h-55.079c0.517,14.093,2.069,27.733,4.655,40.663
		c16.743-3.556,33.616-5.56,50.489-6.206v-34.457H185.374z"/>
</g>
<path style="fill:#FFC10D;" d="M359.855,271.903H32.743c-6.012,0-10.925,4.849-10.925,10.925v76.994
	c0,6.012,4.848,10.925,10.925,10.925h327.111c6.012,0,10.925-4.848,10.925-10.925v-76.994
	C370.78,276.816,365.867,271.903,359.855,271.903z"/>
<g>
	<path style="fill:#56ACE0;" d="M113.745,217.341c-5.754,1.681-11.442,3.491-17.196,5.495
		c-9.568-15.127-15.838-32.582-17.648-51.329h29.543C109.026,187.281,110.836,202.731,113.745,217.341z"/>
	<path style="fill:#56ACE0;" d="M108.444,149.721H78.966c1.875-20.752,9.18-39.951,20.493-56.178
		c5.301,0.905,10.602,1.81,15.968,2.586C111.547,112.679,109.156,130.715,108.444,149.721z"/>
	<path style="fill:#56ACE0;" d="M116.396,74.149c2.457-2.263,4.978-4.396,7.628-6.4c-0.905,2.327-1.745,4.719-2.586,7.111
		C119.758,74.667,118.077,74.408,116.396,74.149z"/>
	<path style="fill:#56ACE0;" d="M119.046,238.545c1.164,3.943,2.457,7.887,3.879,11.572h-2.327
		c-3.426-2.844-6.659-5.883-9.697-9.051C113.552,240.162,116.331,239.321,119.046,238.545z"/>
	<path style="fill:#56ACE0;" d="M130.295,149.657L130.295,149.657v0.065V149.657z"/>
	<path style="fill:#56ACE0;" d="M185.438,79.838c-13.899-0.259-27.798-1.099-41.762-2.392c3.814-10.408,8.275-19.717,13.317-27.604
		c9.051-3.168,18.554-5.236,28.444-6.077V79.838z"/>
	<path style="fill:#56ACE0;" d="M130.295,171.636h55.079v34.457c-16.873,0.517-33.681,2.651-50.489,6.206
		C132.428,199.37,130.877,185.6,130.295,171.636z"/>
	<path style="fill:#56ACE0;" d="M140.186,233.115c15.063-3.103,30.125-5.042,45.188-5.624v22.562h-39.111
		C144.065,244.622,141.996,239.063,140.186,233.115z"/>
	<path style="fill:#56ACE0;" d="M137.341,98.651c15.968,1.616,32.065,2.521,48.162,2.844v48.162H130.36
		C131.006,131.556,133.463,114.36,137.341,98.651z"/>
	<path style="fill:#56ACE0;" d="M248.921,77.446c-13.899,1.293-27.798,2.069-41.762,2.392V43.895
		c10.085,0.97,19.717,3.297,28.897,6.659C240.905,58.246,245.236,67.297,248.921,77.446z"/>
	<path style="fill:#56ACE0;" d="M207.16,227.491c15.063,0.646,30.125,2.586,45.188,5.754c-1.81,5.947-3.879,11.507-6.077,16.937
		H207.16V227.491z"/>
	<path style="fill:#56ACE0;" d="M207.16,171.572h55.079c-0.517,14.093-2.069,27.733-4.655,40.663
		c-16.743-3.556-33.616-5.56-50.489-6.206v-34.457H207.16z"/>
	<path style="fill:#56ACE0;" d="M255.321,98.78c3.879,15.709,6.271,32.905,7.046,51.071H207.16v-48.226
		C223.257,101.301,239.354,100.396,255.321,98.78z"/>
	<path style="fill:#56ACE0;" d="M271.16,74.925c-0.646-1.875-1.293-3.685-1.939-5.495c1.939,1.616,3.879,3.232,5.689,4.978
		C273.681,74.602,272.453,74.796,271.16,74.925z"/>
	<path style="fill:#56ACE0;" d="M273.552,238.545c2.327,0.646,4.655,1.358,6.982,2.133c-3.168,3.362-6.529,6.529-10.085,9.503
		h-0.776C271.095,246.368,272.323,242.489,273.552,238.545z"/>
	<path style="fill:#56ACE0;" d="M284.089,171.572h27.927c-1.745,18.554-7.887,35.879-17.325,50.877
		c-5.236-1.81-10.537-3.426-15.838-4.978C281.762,202.861,283.572,187.41,284.089,171.572z"/>
	<path style="fill:#56ACE0;" d="M284.154,149.721c-0.711-19.071-3.103-37.107-6.982-53.592c4.848-0.711,9.762-1.422,14.61-2.263
		c11.184,16.162,18.424,35.232,20.234,55.855H284.154z"/>
</g>
<g>
	<path style="fill:#194F82;" d="M143.16,304.162c-5.56,0-10.537,2.263-14.933,6.723v-5.883h-14.675v52.558h14.675v-29.285
		c0-4.073,1.099-7.176,3.232-9.374c2.133-2.069,4.719-3.168,7.628-3.168c5.947,0,8.857,4.008,8.857,12.154v29.673h14.675v-31.935
		C163.653,313.212,155.119,304.162,143.16,304.162z"/>
	<path style="fill:#194F82;" d="M262.691,304.162c-5.56,0-10.537,2.263-14.933,6.723v-5.883h-14.61v52.558h14.675v-29.285
		c0-4.073,1.099-7.176,3.232-9.374c2.133-2.069,4.719-3.168,7.628-3.168c5.947,0,8.857,4.008,8.857,12.154v29.673h14.739v-31.935
		C283.184,313.212,274.715,304.162,262.691,304.162z"/>
	<rect x="176" y="285.026" style="fill:#194F82;" width="14.675" height="72.469"/>
	<rect x="204.509" y="305.002" style="fill:#194F82;" width="14.675" height="52.558"/>
	<path style="fill:#194F82;" d="M345.374,328.663c0-14.998-11.055-24.501-25.988-24.501c-16.614,0-26.764,12.154-26.764,27.022
		c0,19.329,14.739,27.216,27.604,27.216c7.952,0,14.933-2.78,20.881-8.404l-8.145-8.921c-3.297,3.491-7.564,5.172-12.671,5.172
		c-8.986,0-12.671-6.853-13.059-9.762h38.141V328.663z M307.426,326.012c0.388-3.038,3.685-9.762,12.154-9.762
		c8.275,0,10.602,6.659,10.925,9.762H307.426z"/>
	<circle style="fill:#194F82;" cx="211.879" cy="292.267" r="8.598"/>
	<path style="fill:#194F82;" d="M74.958,304.162c-18.877,0-27.798,14.998-27.798,27.152s8.986,27.152,27.798,27.152
		c17.648,0,27.798-13.511,27.798-27.152C102.756,317.673,92.541,304.162,74.958,304.162z M74.958,345.859
		c-8.21,0-13.059-6.723-13.059-14.61c0-7.887,4.848-14.61,13.059-14.61c7.822,0,13.059,6.271,13.059,14.61
		C88.016,339.588,82.715,345.859,74.958,345.859z"/>
	<path style="fill:#194F82;" d="M359.855,250.117h-30.125c17.713-26.246,27.281-57.341,27.281-89.471
		C356.945,72.081,284.929,0,196.299,0S35.653,72.081,35.653,160.646c0,32.129,9.568,63.16,27.281,89.471H32.808
		c-18.101,0-32.776,14.675-32.776,32.711v76.994c0,18.101,14.675,32.776,32.711,32.776h327.111
		c18.036,0,32.711-14.675,32.711-32.711v-77.059C392.566,264.792,377.891,250.117,359.855,250.117z M370.78,359.822
		c0,6.012-4.848,10.925-10.925,10.925H32.743c-6.012,0-10.925-4.848-10.925-10.925v-76.994c0-6.012,4.848-10.925,10.925-10.925
		h327.111c6.012,0,10.925,4.849,10.925,10.925V359.822L370.78,359.822z M77.22,89.341c12.671,2.651,25.341,4.978,38.141,6.788
		c-3.879,16.549-6.271,34.586-6.982,53.657H57.891C59.572,127.806,66.424,107.248,77.22,89.341z M334.707,149.721h-50.554
		c-0.711-19.071-3.103-37.107-6.982-53.657c12.8-1.745,25.6-4.073,38.141-6.788C326.174,107.248,333.026,127.806,334.707,149.721z
		 M278.853,217.471c2.909-14.61,4.719-30.061,5.236-45.899h50.554c-1.616,20.945-8.016,41.115-18.554,59.022
		C303.806,225.422,291.329,221.026,278.853,217.471z M303.354,248.889c-0.323,0.388-0.711,0.84-1.034,1.228h-32.582
		c1.422-3.814,2.651-7.628,3.879-11.572C283.442,241.39,293.463,244.881,303.354,248.889z M271.16,74.925
		c-5.56-16.356-12.735-30.707-21.075-42.279c19.782,8.339,37.236,21.204,51.135,37.236C291.265,71.758,281.244,73.568,271.16,74.925
		z M207.224,149.721V101.56c16.097-0.323,32.129-1.228,48.162-2.844c3.879,15.709,6.271,32.905,7.046,51.071h-55.143v-0.065H207.224
		z M262.303,171.572c-0.517,14.093-2.069,27.733-4.655,40.663c-16.743-3.556-33.616-5.56-50.489-6.206v-34.457H262.303z
		 M207.224,79.838V23.79c16.743,6.077,31.612,25.988,41.697,53.657C235.022,78.739,221.123,79.515,207.224,79.838z M207.224,227.491
		c15.063,0.646,30.125,2.521,45.188,5.689c-1.745,5.947-3.879,11.507-6.077,16.937h-39.111V227.491z M119.046,238.545
		c1.164,3.943,2.457,7.887,3.879,11.572H90.279c-0.323-0.388-0.711-0.776-1.034-1.228
		C99.135,244.881,109.156,241.39,119.046,238.545z M76.444,230.594c-10.537-18.036-16.873-38.077-18.489-59.022h50.554
		c0.517,15.774,2.327,31.224,5.236,45.834C101.269,221.026,88.792,225.422,76.444,230.594z M134.949,212.234
		c-2.521-12.929-4.073-26.634-4.655-40.663h55.079v34.457C168.566,206.61,151.693,208.679,134.949,212.234z M185.374,227.491v22.562
		h-39.111c-2.263-5.43-4.331-10.99-6.077-16.937C155.248,230.012,170.311,228.073,185.374,227.491z M130.295,149.721
		c0.711-18.166,3.168-35.362,7.046-51.071c15.968,1.616,32.065,2.521,48.162,2.844v48.162H130.36v0.065H130.295z M185.374,79.838
		c-13.899-0.259-27.798-1.099-41.697-2.392c10.15-27.669,24.954-47.515,41.697-53.657V79.838z M142.513,32.582
		c-8.339,11.572-15.515,25.859-21.075,42.279c-10.149-1.422-20.105-3.103-30.061-5.042C105.277,53.851,122.731,41.05,142.513,32.582
		z"/>
</g>
<g>
</g>
<g>
</g>
<g>
</g>
<g>
</g>
<g>
</g>
<g>
</g>
<g>
</g>
<g>
</g>
<g>
</g>
<g>
</g>
<g>
</g>
<g>
</g>
<g>
</g>
<g>
</g>
<g>
</g>
</svg>
