<?xml version="1.0" encoding="iso-8859-1"?>
<!-- Generator: Adobe Illustrator 19.0.0, SVG Export Plug-In . SVG Version: 6.00 Build 0)  -->
<svg version="1.1" id="Layer_1" xmlns="http://www.w3.org/2000/svg" xmlns:xlink="http://www.w3.org/1999/xlink" x="0px" y="0px"
	 viewBox="0 0 392.598 392.598" style="enable-background:new 0 0 392.598 392.598;" xml:space="preserve">
<g>
	<path style="fill:#FFFFFF;" d="M295.531,360.339c0,3.491,0.323,6.982,0.84,10.343h63.418c6.012,0,10.925-4.849,10.925-10.925
		v-62.836c-3.62-0.646-7.24-0.905-10.925-0.905C324.428,296.016,295.531,324.849,295.531,360.339z"/>
	<path style="fill:#FFFFFF;" d="M21.818,359.822c0,6.012,4.848,10.925,10.925,10.925h126.061v-47.774
		c0-6.012,4.848-10.925,10.925-10.925h44.865c2.327-6.982,5.107-13.77,8.339-20.234l-31.741-31.741
		c-4.461-4.461-4.073-11.766,0-15.451l52.881-52.881c4.267-4.267,11.119-4.267,15.451,0l31.741,31.741
		c6.465-3.232,13.317-6.012,20.234-8.339v-44.865c0-6.012,4.848-10.925,10.925-10.925h48.291v-52.622H21.818V359.822z"/>
</g>
<path style="fill:#56ACE0;" d="M43.604,128.517v20.17h47.063c6.012,0,10.925,4.848,10.925,10.925
	c0,6.012-4.848,10.925-10.925,10.925H43.604v28.121h25.277c6.012,0,10.925,4.848,10.925,10.925c0,6.012-4.848,10.925-10.925,10.925
	H43.604v128.517h305.325V128.517H43.604z"/>
<g>
	<path style="fill:#FFC10D;" d="M359.855,21.786H32.743c-6.012,0-10.925,4.848-10.925,10.925v52.17H370.78v-52.17
		C370.78,26.699,365.867,21.786,359.855,21.786z"/>
	<path style="fill:#FFC10D;" d="M333.35,223.224c0,4.913-3.297,9.18-8.016,10.537c-10.796,2.909-21.075,7.176-30.578,12.671
		c-4.267,2.457-9.632,1.681-13.123-1.745l-29.737-29.737L214.4,252.444l29.737,29.737c3.491,3.491,4.202,8.857,1.745,13.123
		c-5.495,9.503-9.762,19.782-12.671,30.578c-1.293,4.719-5.56,8.016-10.537,8.016H180.59v36.848h93.802
		c-0.453-3.491-0.711-6.982-0.711-10.343c0-47.451,38.659-86.109,86.109-86.109c3.62,0,7.24,0.323,10.925,0.776v-93.931h-37.43
		v42.085H333.35z"/>
</g>
<g>
	<path style="fill:#194F82;" d="M359.855,0H32.743C14.707,0,0.032,14.675,0.032,32.711v327.111
		c0,18.101,14.675,32.776,32.711,32.776h327.111c18.036,0,32.711-14.675,32.711-32.711V32.711C392.566,14.675,377.891,0,359.855,0z
		 M21.818,32.711c0-6.012,4.848-10.925,10.925-10.925h327.111c6.012,0,10.925,4.848,10.925,10.925v52.17H21.818V32.711z
		 M359.855,370.747h-63.418c-0.517-3.491-0.84-6.982-0.84-10.343c0-35.491,28.832-64.323,64.323-64.323
		c3.62,0,7.24,0.323,10.925,0.905v62.836l0,0C370.78,365.899,365.931,370.747,359.855,370.747z M370.78,275.006L370.78,275.006
		c-3.62-0.453-7.24-0.776-10.925-0.776c-47.451,0-86.109,38.659-86.109,86.109c0,3.491,0.259,6.982,0.711,10.343H180.59v-36.849
		h42.085c4.978,0,9.18-3.297,10.537-8.016c2.909-10.796,7.176-21.075,12.671-30.578c2.457-4.267,1.681-9.632-1.745-13.123
		L214.4,252.38l37.495-37.495l29.737,29.737c3.491,3.491,8.857,4.202,13.123,1.745c9.503-5.495,19.782-9.762,30.578-12.671
		c4.719-1.293,8.016-5.56,8.016-10.537v-42.085h37.43V275.006z M370.78,159.354L370.78,159.354h-48.291
		c-6.012,0-10.925,4.848-10.925,10.925v44.865c-6.982,2.327-13.77,5.107-20.234,8.339l-31.741-31.741
		c-4.267-4.267-11.119-4.267-15.45,0l-52.881,52.881c-4.073,3.685-4.461,10.925,0,15.451l31.741,31.741
		c-3.232,6.465-6.012,13.317-8.339,20.234h-44.865c-6.012,0-10.925,4.848-10.925,10.925v47.774H32.743
		c-6.012,0-10.925-4.848-10.925-10.925V106.731H370.78L370.78,159.354L370.78,159.354z"/>
	<path style="fill:#194F82;" d="M334.319,40.533h-16.937c-6.012,0-10.925,4.848-10.925,10.925s4.848,10.925,10.925,10.925h16.937
		c6.012,0,10.925-4.848,10.925-10.925S340.331,40.533,334.319,40.533z"/>
	<path style="fill:#194F82;" d="M270.772,40.533h-16.937c-6.012,0-10.925,4.848-10.925,10.925s4.848,10.925,10.925,10.925h16.937
		c6.012,0,10.925-4.848,10.925-10.925S276.849,40.533,270.772,40.533z"/>
</g>
<g>
</g>
<g>
</g>
<g>
</g>
<g>
</g>
<g>
</g>
<g>
</g>
<g>
</g>
<g>
</g>
<g>
</g>
<g>
</g>
<g>
</g>
<g>
</g>
<g>
</g>
<g>
</g>
<g>
</g>
</svg>
