<?xml version="1.0" encoding="iso-8859-1"?>
<!-- Generator: Adobe Illustrator 19.0.0, SVG Export Plug-In . SVG Version: 6.00 Build 0)  -->
<svg version="1.1" id="Layer_1" xmlns="http://www.w3.org/2000/svg" xmlns:xlink="http://www.w3.org/1999/xlink" x="0px" y="0px"
	 viewBox="0 0 392.598 392.598" style="enable-background:new 0 0 392.598 392.598;" xml:space="preserve">
<path style="fill:#FFC10D;" d="M370.78,32.711c0-6.012-4.848-10.925-10.925-10.925H32.743c-6.012,0-10.925,4.848-10.925,10.925
	v56.307H370.78L370.78,32.711L370.78,32.711z"/>
<path style="fill:#56ACE0;" d="M21.818,359.822c0,6.012,4.848,10.925,10.925,10.925h85.01V110.869H21.818V359.822z"/>
<path style="fill:#FFFFFF;" d="M139.604,370.747h220.251c6.012,0,10.925-4.848,10.925-10.925V110.869H139.604V370.747z"/>
<rect x="161.39" y="132.655" style="fill:#FFC10D;" width="187.604" height="216.307"/>
<g>
	<rect x="191.709" y="176.097" style="fill:#FFFFFF;" width="30.578" height="30.578"/>
	<rect x="288.032" y="176.097" style="fill:#FFFFFF;" width="30.513" height="30.578"/>
	<rect x="191.709" y="274.941" style="fill:#FFFFFF;" width="30.578" height="30.578"/>
	<rect x="288.032" y="274.941" style="fill:#FFFFFF;" width="30.513" height="30.578"/>
</g>
<g>
	<path style="fill:#194F82;" d="M359.855,0H32.743C14.707,0,0.032,14.675,0.032,32.711v327.111
		c0,18.101,14.675,32.776,32.711,32.776h327.111c18.036,0,32.711-14.675,32.711-32.711V32.711C392.566,14.675,377.891,0,359.855,0z
		 M21.818,32.711c0-6.012,4.848-10.925,10.925-10.925h327.111c6.012,0,10.925,4.848,10.925,10.925v56.307H21.818V32.711z
		 M117.689,370.747H32.743c-6.012,0-10.925-4.848-10.925-10.925V110.869h95.871V370.747z M370.78,359.822L370.78,359.822
		c0,6.012-4.848,10.925-10.925,10.925H139.604V110.869H370.78V359.822z"/>
	<path style="fill:#194F82;" d="M347.119,34.909c-4.267-4.267-11.119-4.267-15.451,0l-5.883,5.883l-5.883-5.883
		c-4.267-4.267-11.119-4.267-15.451,0c-4.267,4.267-4.267,11.119,0,15.451l5.883,5.883l-5.883,5.883
		c-4.267,4.267-4.267,11.119,0,15.451c4.267,4.267,11.119,4.267,15.451,0l5.883-5.883l5.883,5.883
		c4.267,4.267,11.119,4.267,15.451,0c4.267-4.267,4.267-11.119,0-15.451l-5.883-5.883l5.883-5.883
		C351.386,46.028,351.386,39.176,347.119,34.909z"/>
	<path style="fill:#194F82;" d="M263.143,49.067h-28.057c-6.012,0-10.925,4.848-10.925,10.925c0,6.012,4.848,10.925,10.925,10.925
		h28.057c6.012,0,10.925-4.848,10.925-10.925S269.156,49.067,263.143,49.067z"/>
	<path style="fill:#194F82;" d="M51.943,157.091h31.354c6.012,0,10.925-4.848,10.925-10.925c0-6.012-4.848-10.925-10.925-10.925
		H51.943c-6.012,0-10.925,4.848-10.925,10.925C41.083,152.242,45.931,157.091,51.943,157.091z"/>
	<path style="fill:#194F82;" d="M51.943,207.192h31.354c6.012,0,10.925-4.848,10.925-10.925c0-6.012-4.848-10.925-10.925-10.925
		H51.943c-6.012,0-10.925,4.848-10.925,10.925S45.931,207.192,51.943,207.192z"/>
	<path style="fill:#194F82;" d="M51.943,257.293h31.354c6.012,0,10.925-4.848,10.925-10.925c0-6.012-4.848-10.925-10.925-10.925
		H51.943c-6.012,0-10.925,4.848-10.925,10.925C41.083,252.444,45.931,257.293,51.943,257.293z"/>
	<path style="fill:#194F82;" d="M51.943,307.394h31.354c6.012,0,10.925-4.848,10.925-10.925c0-6.012-4.848-10.925-10.925-10.925
		H51.943c-6.012,0-10.925,4.848-10.925,10.925C41.083,302.545,45.931,307.394,51.943,307.394z"/>
	<path style="fill:#194F82;" d="M180.784,228.461h52.364c6.012,0,10.925-4.848,10.925-10.925v-52.364
		c0-6.012-4.848-10.925-10.925-10.925h-52.364c-6.012,0-10.925,4.848-10.925,10.925v52.364
		C169.859,223.612,174.772,228.461,180.784,228.461z M191.644,176.097h30.578v30.578h-30.578V176.097z"/>
	<path style="fill:#194F82;" d="M277.107,228.461h52.364c6.012,0,10.925-4.848,10.925-10.925v-52.364
		c0-6.012-4.848-10.925-10.925-10.925h-52.364c-6.012,0-10.925,4.848-10.925,10.925v52.364
		C266.246,223.612,271.095,228.461,277.107,228.461z M288.097,176.097h30.513v30.578h-30.513V176.097z"/>
	<path style="fill:#194F82;" d="M180.784,327.24h52.364c6.012,0,10.925-4.848,10.925-10.925v-52.364
		c0-6.012-4.848-10.925-10.925-10.925h-52.364c-6.012,0-10.925,4.848-10.925,10.925v52.364
		C169.859,322.392,174.772,327.24,180.784,327.24z M191.644,274.877h30.578v30.578h-30.578V274.877z"/>
	<path style="fill:#194F82;" d="M277.107,327.24h52.364c6.012,0,10.925-4.848,10.925-10.925v-52.364
		c0-6.012-4.848-10.925-10.925-10.925h-52.364c-6.012,0-10.925,4.848-10.925,10.925v52.364
		C266.246,322.392,271.095,327.24,277.107,327.24z M288.097,274.877h30.513v30.578h-30.513V274.877z"/>
</g>
<g>
</g>
<g>
</g>
<g>
</g>
<g>
</g>
<g>
</g>
<g>
</g>
<g>
</g>
<g>
</g>
<g>
</g>
<g>
</g>
<g>
</g>
<g>
</g>
<g>
</g>
<g>
</g>
<g>
</g>
</svg>
