<?xml version="1.0" encoding="iso-8859-1"?>
<!-- Generator: Adobe Illustrator 19.0.0, SVG Export Plug-In . SVG Version: 6.00 Build 0)  -->
<svg version="1.1" id="Layer_1" xmlns="http://www.w3.org/2000/svg" xmlns:xlink="http://www.w3.org/1999/xlink" x="0px" y="0px"
	 viewBox="0 0 392.598 392.598" style="enable-background:new 0 0 392.598 392.598;" xml:space="preserve">
<path style="fill:#FFFFFF;" d="M21.818,359.822c0,6.012,4.848,10.925,10.925,10.925h327.111c6.012,0,10.925-4.848,10.925-10.925
	V98.909H21.818V359.822z"/>
<path style="fill:#FFC10D;" d="M217.374,21.786H32.743c-6.012,0-10.925,4.848-10.925,10.925v44.412h195.491V21.786H217.374z"/>
<path style="fill:#FFFFFF;" d="M370.78,32.711c0-6.012-4.848-10.925-10.925-10.925H239.16v55.337h131.62V32.711z"/>
<path style="fill:#56ACE0;" d="M43.604,120.76v12.541h40.727c6.012,0,10.925,4.848,10.925,10.925
	c0,6.012-4.848,10.925-10.925,10.925H43.604v21.721h18.941c6.012,0,10.925,4.848,10.925,10.925c0,6.012-4.848,10.925-10.925,10.925
	H43.604v150.303h305.325V120.824H43.604V120.76z"/>
<path style="fill:#FFC10D;" d="M208.259,214.885l-11.96-36.848l-11.96,36.848c-1.487,4.461-5.624,7.564-10.343,7.564h-38.788
	l31.354,22.82c3.814,2.78,5.43,7.758,3.943,12.218l-11.96,36.848l31.354-22.82c4.202-2.844,9.438-2.715,12.8,0l31.354,22.82
	l-11.96-36.848c-1.487-4.461,0.129-9.438,3.943-12.218l31.354-22.82h-38.788C213.947,222.448,209.745,219.475,208.259,214.885z"/>
<g>
	<path style="fill:#194F82;" d="M95.127,220.38l52.105,37.883l-19.911,61.285c-1.487,4.461,0.129,9.438,3.943,12.218
		c3.814,2.78,8.986,2.78,12.8,0l52.105-37.883l52.105,37.883c5.495,3.879,10.925,1.422,12.8,0c3.814-2.78,5.43-7.758,3.943-12.218
		l-19.911-61.285l52.105-37.883c4.073-2.78,5.624-7.758,4.202-12.218c-1.487-4.461-5.624-7.499-10.343-7.499h-64.453l-20.04-61.285
		c-1.487-4.461-5.624-7.499-10.343-7.499c-4.719,0-8.857,3.038-10.343,7.499l-19.976,61.285h-64.388
		c-4.719,0-8.857,3.038-10.343,7.499C89.762,212.622,91.378,217.6,95.127,220.38z M173.996,222.448
		c4.719,0,8.857-3.038,10.343-7.564l11.96-36.848l11.96,36.848c1.487,4.461,5.624,7.564,10.343,7.564h38.788l-31.354,22.82
		c-3.814,2.78-5.43,7.758-3.943,12.218l11.96,36.848l-31.354-22.82c-3.426-2.715-8.663-2.844-12.8,0l-31.354,22.82l11.96-36.848
		c1.487-4.461-0.129-9.438-3.943-12.218l-31.354-22.82L173.996,222.448L173.996,222.448z"/>
	<path style="fill:#194F82;" d="M359.855,0H32.743C14.707,0,0.032,14.675,0.032,32.711v327.111
		c0,18.101,14.675,32.776,32.711,32.776h327.111c18.036,0,32.711-14.675,32.711-32.711V32.711C392.566,14.675,377.891,0,359.855,0z
		 M21.818,32.711c0-6.012,4.848-10.925,10.925-10.925h184.63v55.337H21.818V32.711z M370.78,359.822L370.78,359.822
		c0,6.012-4.848,10.925-10.925,10.925H32.743c-6.012,0-10.925-4.848-10.925-10.925V98.909H370.78L370.78,359.822L370.78,359.822z
		 M370.78,77.123H239.16V21.786h120.695c6.012,0,10.925,4.848,10.925,10.925V77.123z"/>
	<path style="fill:#194F82;" d="M280.275,38.529h-7.434c-6.012,0-10.925,4.848-10.925,10.925s4.848,10.925,10.925,10.925h7.434
		c6.012,0,10.925-4.848,10.925-10.925S286.352,38.529,280.275,38.529z"/>
	<path style="fill:#194F82;" d="M334.836,38.529h-7.434c-6.012,0-10.925,4.848-10.925,10.925s4.848,10.925,10.925,10.925h7.434
		c6.012,0,10.925-4.848,10.925-10.925S340.913,38.529,334.836,38.529z"/>
</g>
<g>
</g>
<g>
</g>
<g>
</g>
<g>
</g>
<g>
</g>
<g>
</g>
<g>
</g>
<g>
</g>
<g>
</g>
<g>
</g>
<g>
</g>
<g>
</g>
<g>
</g>
<g>
</g>
<g>
</g>
</svg>
