<?xml version="1.0" encoding="iso-8859-1"?>
<!-- Generator: Adobe Illustrator 19.0.0, SVG Export Plug-In . SVG Version: 6.00 Build 0)  -->
<svg version="1.1" id="Layer_1" xmlns="http://www.w3.org/2000/svg" xmlns:xlink="http://www.w3.org/1999/xlink" x="0px" y="0px"
	 viewBox="0 0 392.598 392.598" style="enable-background:new 0 0 392.598 392.598;" xml:space="preserve">
<path style="fill:#FFFFFF;" d="M21.818,359.822c0,6.012,4.848,10.925,10.925,10.925h327.111c6.012,0,10.925-4.848,10.925-10.925
	V106.731H21.818V359.822z"/>
<path style="fill:#FFC10D;" d="M370.78,32.711c0-6.012-4.848-10.925-10.925-10.925H32.743c-6.012,0-10.925,4.848-10.925,10.925
	v52.17H370.78L370.78,32.711L370.78,32.711z"/>
<path style="fill:#194F82;" d="M359.855,0H32.743C14.707,0,0.032,14.675,0.032,32.711v327.111c0,18.101,14.675,32.776,32.711,32.776
	h327.111c18.036,0,32.711-14.675,32.711-32.711V32.711C392.566,14.675,377.891,0,359.855,0z M370.78,359.822
	c0,6.012-4.848,10.925-10.925,10.925H32.743c-6.012,0-10.925-4.848-10.925-10.925V106.731H370.78L370.78,359.822L370.78,359.822z
	 M21.818,32.711c0-6.012,4.848-10.925,10.925-10.925h327.111c6.012,0,10.925,4.848,10.925,10.925v52.17H21.818V32.711z"/>
<path style="fill:#56ACE0;" d="M43.604,128.517v13.576h47.063c6.012,0,10.925,4.848,10.925,10.925
	c0,6.012-4.848,10.925-10.925,10.925H43.604v28.121h25.277c6.012,0,10.925,4.848,10.925,10.925c0,6.012-4.848,10.925-10.925,10.925
	H43.604v135.046h305.325V128.517H43.604z"/>
<g>
	<path style="fill:#FFC10D;" d="M196.299,230.594c20.04,0,37.236-23.273,40.727-52.752h-81.455
		C159.063,207.386,176.259,230.594,196.299,230.594z"/>
	<path style="fill:#FFC10D;" d="M196.299,252.444c-20.04,0-37.236,23.273-40.727,52.687h81.519
		C233.535,275.653,216.339,252.444,196.299,252.444z"/>
</g>
<g>
	<path style="fill:#194F82;" d="M265.535,305.131h-6.594c-2.65-27.345-14.739-50.683-31.806-63.677
		c17.067-12.994,29.285-36.331,31.806-63.677h6.594c6.012,0,10.925-4.848,10.925-10.925c0-6.077-4.848-10.925-10.925-10.925H127.063
		c-6.012,0-10.925,4.848-10.925,10.925c0,6.077,4.848,10.925,10.925,10.925h6.594c2.651,27.345,14.739,50.683,31.806,63.677
		c-17.067,12.994-29.285,36.331-31.806,63.677h-6.594c-6.012,0-10.925,4.848-10.925,10.925c0,6.012,4.848,10.925,10.925,10.925
		h138.408c6.012,0,10.925-4.848,10.925-10.925C276.461,310.044,271.547,305.131,265.535,305.131z M155.572,305.131
		c3.491-29.543,20.687-52.687,40.727-52.687s37.236,23.273,40.727,52.687H155.572L155.572,305.131z M237.026,177.907
		c-3.491,29.543-20.687,52.752-40.727,52.752s-37.236-23.273-40.727-52.752H237.026z"/>
	<path style="fill:#194F82;" d="M334.319,40.533h-16.937c-6.012,0-10.925,4.848-10.925,10.925c0,6.012,4.848,10.925,10.925,10.925
		h16.937c6.012,0,10.925-4.848,10.925-10.925C345.18,45.446,340.331,40.533,334.319,40.533z"/>
	<path style="fill:#194F82;" d="M270.772,40.533h-16.937c-6.012,0-10.925,4.848-10.925,10.925c0,6.012,4.848,10.925,10.925,10.925
		h16.937c6.012,0,10.925-4.848,10.925-10.925C281.697,45.446,276.849,40.533,270.772,40.533z"/>
	<path style="fill:#194F82;" d="M201.729,40.533H55.176c-6.012,0-10.925,4.848-10.925,10.925c0,6.012,4.848,10.925,10.925,10.925
		h146.489c6.012,0,10.925-4.848,10.925-10.925C212.59,45.446,207.741,40.533,201.729,40.533z"/>
</g>
<g>
</g>
<g>
</g>
<g>
</g>
<g>
</g>
<g>
</g>
<g>
</g>
<g>
</g>
<g>
</g>
<g>
</g>
<g>
</g>
<g>
</g>
<g>
</g>
<g>
</g>
<g>
</g>
<g>
</g>
</svg>
