<?xml version="1.0" encoding="iso-8859-1"?>
<!-- Generator: Adobe Illustrator 19.0.0, SVG Export Plug-In . SVG Version: 6.00 Build 0)  -->
<svg version="1.1" id="Layer_1" xmlns="http://www.w3.org/2000/svg" xmlns:xlink="http://www.w3.org/1999/xlink" x="0px" y="0px"
	 viewBox="0 0 392.598 392.598" style="enable-background:new 0 0 392.598 392.598;" xml:space="preserve">
<g>
	<path style="fill:#FFFFFF;" d="M21.818,359.822c0,6.012,4.848,10.925,10.925,10.925h327.111c6.012,0,10.925-4.848,10.925-10.925
		V99.879H21.818V359.822z"/>
	<path style="fill:#FFFFFF;" d="M198.82,21.786H32.743c-6.012,0-10.925,4.848-10.925,10.925v45.446H198.82V21.786z"/>
</g>
<path style="fill:#FFC10D;" d="M370.715,31.547c0-0.194-0.065-0.323-0.065-0.453c-0.065-0.323-0.129-0.646-0.194-0.905l0,0
	c-0.97-3.943-4.137-7.111-8.081-8.081l0,0c-0.323-0.065-0.582-0.129-0.905-0.194c-0.194,0-0.323-0.065-0.453-0.065
	c-0.388-0.065-0.776-0.065-1.099-0.065H220.735v56.307H370.78V32.711C370.78,32.323,370.78,31.935,370.715,31.547z M273.939,61.996
	h-12.735c-6.012,0-10.925-4.848-10.925-10.861s4.848-10.925,10.925-10.925h12.671c6.012,0,10.99,4.978,10.99,10.925
	S280.016,61.996,273.939,61.996z M335.418,61.996h-12.735c-6.012,0-10.861-4.848-10.861-10.861s4.848-10.925,10.861-10.925h12.735
	c6.012,0,10.925,4.978,10.925,10.925C346.279,57.083,341.43,61.996,335.418,61.996z"/>
<path style="fill:#56ACE0;" d="M43.604,121.729v227.168h305.325V121.729H43.604z M55.111,138.214
	c0-6.012,4.848-10.861,10.861-10.861h94.578c6.012,0,10.99,4.848,10.861,10.861v104.727c0,6.012-4.848,10.861-10.861,10.861H66.036
	c-6.012,0-10.861-4.848-10.861-10.861V138.214H55.111z M168.566,340.299H66.036c-6.012,0-10.861-4.848-10.861-10.925
	c0-6.012,4.848-10.925,10.861-10.925h102.529c6.012,0,10.861,4.848,10.861,10.925S174.578,340.299,168.566,340.299z
	 M168.566,295.434H66.036c-6.012,0-10.861-4.848-10.861-10.925c0-6.012,4.848-10.861,10.861-10.861h102.529
	c6.012,0,10.861,4.848,10.861,10.861S174.578,295.434,168.566,295.434z M326.562,340.299H224.032
	c-6.012,0-10.861-4.848-10.861-10.925c0-6.012,4.848-10.925,10.861-10.925h102.529c6.012,0,10.861,4.848,10.861,10.925
	C337.487,335.451,332.574,340.299,326.562,340.299z M326.562,295.434H224.032c-6.012,0-10.861-4.848-10.861-10.925
	c0-6.012,4.848-10.861,10.861-10.861h102.529c6.012,0,10.861,4.848,10.861,10.861C337.487,290.521,332.574,295.434,326.562,295.434z
	 M326.562,250.57H224.032c-6.012,0-10.861-4.848-10.861-10.925c0-6.012,4.848-10.925,10.861-10.925h102.529
	c6.012,0,10.861,4.848,10.861,10.925C337.487,245.721,332.574,250.57,326.562,250.57z M326.562,205.705H224.032
	c-6.012,0-10.861-4.848-10.861-10.925s4.848-10.861,10.861-10.861h102.529c6.012,0,10.861,4.848,10.861,10.861
	S332.574,205.705,326.562,205.705z M326.562,160.776H224.032c-6.012,0-10.861-4.848-10.861-10.925
	c0-6.012,4.848-10.925,10.861-10.925h102.529c6.012,0,10.861,4.848,10.861,10.925C337.487,155.927,332.574,160.776,326.562,160.776z
	"/>
<g>
	<polygon style="fill:#FFC10D;" points="90.602,149.139 113.293,174.352 136.113,149.139 	"/>
	<polygon style="fill:#FFC10D;" points="136.113,232.016 113.293,206.869 90.602,232.016 	"/>
	<polygon style="fill:#FFC10D;" points="149.689,214.562 149.689,166.529 128.097,190.578 	"/>
	<polygon style="fill:#FFC10D;" points="76.962,214.562 98.618,190.578 76.962,166.529 	"/>
</g>
<g>
	<path style="fill:#194F82;" d="M359.855,0H32.743C14.707,0,0.032,14.675,0.032,32.711v327.111
		c0,18.101,14.675,32.776,32.711,32.776h327.111c18.036,0,32.711-14.675,32.711-32.711V32.711C392.566,14.675,377.891,0,359.855,0z
		 M21.818,32.711c0-6.012,4.848-10.925,10.925-10.925h166.141v56.307H21.818V32.711z M370.78,359.822L370.78,359.822
		c0,6.012-4.848,10.925-10.925,10.925H32.743c-6.012,0-10.925-4.848-10.925-10.925V99.879H370.78L370.78,359.822L370.78,359.822z
		 M370.78,78.093L370.78,78.093H220.735V21.786h139.119c6.012,0,10.925,4.848,10.925,10.925V78.093z"/>
	<path style="fill:#194F82;" d="M273.875,40.145h-12.671c-6.012,0-10.925,4.848-10.925,10.925c0,6.012,4.848,10.925,10.925,10.925
		h12.735c6.012,0,10.925-4.848,10.925-10.925C284.865,45.123,279.887,40.145,273.875,40.145z"/>
	<path style="fill:#194F82;" d="M335.418,40.145h-12.735c-6.012,0-10.925,4.848-10.925,10.925c0,6.012,4.848,10.925,10.925,10.925
		h12.735c6.012,0,10.925-4.848,10.925-10.925C346.279,45.123,341.43,40.145,335.418,40.145z"/>
	<polygon style="fill:#194F82;" points="71.337,53.98 65.778,36.59 58.085,36.59 52.396,53.98 46.836,36.59 38.562,36.59 
		48.323,65.358 56.598,65.358 61.899,49.778 67.2,65.358 75.539,65.358 85.366,36.59 76.962,36.59 	"/>
	<polygon style="fill:#194F82;" points="119.564,53.98 113.939,36.59 106.182,36.59 100.558,53.98 94.998,36.59 86.723,36.59 
		96.485,65.358 104.76,65.358 110.061,49.778 115.426,65.358 123.636,65.358 133.463,36.59 125.123,36.59 	"/>
	<polygon style="fill:#194F82;" points="167.725,53.98 162.036,36.59 154.343,36.59 148.719,53.98 143.16,36.59 134.885,36.59 
		144.582,65.358 152.857,65.358 158.222,49.778 163.523,65.358 171.863,65.358 181.624,36.59 173.285,36.59 	"/>
	<path style="fill:#194F82;" d="M66.036,253.867h94.578c6.012,0,10.925-4.848,10.925-10.925V138.214
		c0.065-6.012-4.848-10.925-10.925-10.925H66.036c-6.012,0-10.925,4.848-10.925,10.925v104.727
		C55.111,248.954,59.96,253.867,66.036,253.867z M90.602,232.016l22.691-25.212l22.82,25.212H90.602z M149.689,214.562
		l-21.721-24.048l21.721-24.048V214.562z M136.113,149.139l-22.691,25.212l-22.82-25.212H136.113z M76.897,166.529l21.721,24.048
		l-21.721,24.048C76.897,214.626,76.897,166.529,76.897,166.529z"/>
	<path style="fill:#194F82;" d="M168.566,295.434H66.036c-6.012,0-10.925-4.848-10.925-10.925c0-6.012,4.848-10.925,10.925-10.925
		h102.529c6.012,0,10.925,4.848,10.925,10.925C179.426,290.521,174.578,295.434,168.566,295.434z"/>
	<path style="fill:#194F82;" d="M168.566,340.299H66.036c-6.012,0-10.925-4.848-10.925-10.925c0-6.012,4.848-10.925,10.925-10.925
		h102.529c6.012,0,10.925,4.848,10.925,10.925C179.426,335.451,174.578,340.299,168.566,340.299z"/>
	<path style="fill:#194F82;" d="M326.562,160.776H224.032c-6.012,0-10.925-4.848-10.925-10.925s4.848-10.925,10.925-10.925h102.529
		c6.012,0,10.925,4.848,10.925,10.925S332.638,160.776,326.562,160.776z"/>
	<path style="fill:#194F82;" d="M326.562,205.705H224.032c-6.012,0-10.925-4.848-10.925-10.925c0-6.012,4.848-10.925,10.925-10.925
		h102.529c6.012,0,10.925,4.848,10.925,10.925S332.638,205.705,326.562,205.705z"/>
	<path style="fill:#194F82;" d="M326.562,250.57H224.032c-6.012,0-10.925-4.848-10.925-10.925c0-6.012,4.848-10.925,10.925-10.925
		h102.529c6.012,0,10.925,4.848,10.925,10.925C337.487,245.721,332.638,250.57,326.562,250.57z"/>
	<path style="fill:#194F82;" d="M326.562,295.434H224.032c-6.012,0-10.925-4.848-10.925-10.925c0-6.012,4.848-10.925,10.925-10.925
		h102.529c6.012,0,10.925,4.848,10.925,10.925C337.487,290.521,332.638,295.434,326.562,295.434z"/>
	<path style="fill:#194F82;" d="M326.562,340.299H224.032c-6.012,0-10.925-4.848-10.925-10.925c0-6.012,4.848-10.925,10.925-10.925
		h102.529c6.012,0,10.925,4.848,10.925,10.925S332.638,340.299,326.562,340.299z"/>
</g>
<g>
</g>
<g>
</g>
<g>
</g>
<g>
</g>
<g>
</g>
<g>
</g>
<g>
</g>
<g>
</g>
<g>
</g>
<g>
</g>
<g>
</g>
<g>
</g>
<g>
</g>
<g>
</g>
<g>
</g>
</svg>
