<?xml version="1.0" encoding="iso-8859-1"?>
<!-- Generator: Adobe Illustrator 19.0.0, SVG Export Plug-In . SVG Version: 6.00 Build 0)  -->
<svg version="1.1" id="Layer_1" xmlns="http://www.w3.org/2000/svg" xmlns:xlink="http://www.w3.org/1999/xlink" x="0px" y="0px"
	 viewBox="0 0 392.598 392.598" style="enable-background:new 0 0 392.598 392.598;" xml:space="preserve">
<path style="fill:#FFC10D;" d="M280.113,217.988c-23.467-19.523-52.945-30.384-83.782-30.384s-60.186,10.796-83.782,30.384
	c24.954,51.329,60.897,109.382,83.782,144.097C219.216,327.37,255.16,269.317,280.113,217.988z"/>
<path style="fill:#FFFFFF;" d="M84.364,133.754c0,15.386,7.434,38.077,18.683,63.806c26.634-20.558,59.216-31.741,93.285-31.741
	c34.004,0,66.586,11.184,93.285,31.677c11.313-25.665,18.683-48.356,18.683-63.741c0-61.737-50.23-111.968-111.968-111.968
	S84.364,72.016,84.364,133.754z"/>
<path style="fill:#194F82;" d="M316.574,370.747H216.63c30.836-47.063,113.39-178.489,113.39-236.994
	C330.085,59.927,270.028,0,196.331,0S62.578,59.927,62.578,133.754c0,58.505,82.554,189.931,113.39,236.994H76.089
	c-6.012,0-10.925,4.848-10.925,10.925s4.848,10.925,10.925,10.925h240.42c6.012,0,10.925-4.848,10.925-10.925
	S322.521,370.747,316.574,370.747z M308.299,133.754c0,15.386-7.434,38.077-18.683,63.741
	c-26.634-20.558-59.281-31.677-93.285-31.677s-66.586,11.184-93.285,31.741c-11.313-25.729-18.683-48.42-18.683-63.806
	c0-61.737,50.23-111.968,111.968-111.968S308.299,72.016,308.299,133.754z M196.331,187.604c30.836,0,60.186,10.796,83.782,30.384
	c-24.954,51.329-60.897,109.382-83.782,144.097c-22.885-34.715-58.828-92.703-83.782-144.097
	C136.145,198.4,165.495,187.604,196.331,187.604z"/>
<path style="fill:#56ACE0;" d="M196.331,69.301c-15.127,0-27.539,12.347-27.539,27.539s12.347,27.539,27.539,27.539
	s27.539-12.347,27.539-27.539S211.459,69.301,196.331,69.301z"/>
<path style="fill:#194F82;" d="M196.331,47.515c-27.216,0-49.325,22.109-49.325,49.325s22.109,49.325,49.325,49.325
	s49.325-22.109,49.325-49.325S223.547,47.515,196.331,47.515z M196.331,124.315c-15.127,0-27.539-12.347-27.539-27.539
	s12.347-27.539,27.539-27.539s27.539,12.347,27.539,27.539S211.459,124.315,196.331,124.315z"/>
<g>
</g>
<g>
</g>
<g>
</g>
<g>
</g>
<g>
</g>
<g>
</g>
<g>
</g>
<g>
</g>
<g>
</g>
<g>
</g>
<g>
</g>
<g>
</g>
<g>
</g>
<g>
</g>
<g>
</g>
</svg>
