<?xml version="1.0" encoding="iso-8859-1"?>
<!-- Generator: Adobe Illustrator 19.0.0, SVG Export Plug-In . SVG Version: 6.00 Build 0)  -->
<svg version="1.1" id="Layer_1" xmlns="http://www.w3.org/2000/svg" xmlns:xlink="http://www.w3.org/1999/xlink" x="0px" y="0px"
	 viewBox="0 0 392.598 392.598" style="enable-background:new 0 0 392.598 392.598;" xml:space="preserve">
<path style="fill:#FFFFFF;" d="M339.459,199.305c-6.788,4.008-14.158,7.176-21.786,9.632v72.081c0,6.012-4.848,10.925-10.925,10.925
	H85.915c-6.012,0-10.925-4.848-10.925-10.925V120.63c0-6.012,4.848-10.925,10.925-10.925h92.897c0-0.905-0.129-1.875-0.129-2.78
	c0-6.465,0.711-12.8,1.745-19.006H53.204v225.81h286.19V199.305H339.459z"/>
<path style="fill:#56ACE0;" d="M113.907,202.279H96.776v67.749h198.982v-56.695c-3.297,0.323-6.723,0.517-10.214,0.517
	c-50.554,0-92.897-35.232-104.016-82.36H96.776v14.158h38.853c6.012,0,10.925,4.848,10.925,10.925
	c0,6.012-4.848,10.925-10.925,10.925H96.776v13.059h17.067c6.012,0,10.925,4.848,10.925,10.925
	C124.768,197.43,119.919,202.279,113.907,202.279z"/>
<g>
	<path style="fill:#194F82;" d="M133.947,246.497l6.335-20.493h8.275l6.271,20.493l7.111-20.493h8.598l-12.412,35.62h-5.883
		l-7.822-24.76l-7.758,24.76h-5.883l-12.477-35.62h8.598L133.947,246.497z"/>
	<path style="fill:#194F82;" d="M185.923,246.497l6.335-20.493h8.275l6.271,20.493l7.111-20.493h8.598l-12.412,35.62h-5.883
		l-7.887-24.695l-7.758,24.76h-5.818l-12.477-35.685h8.598L185.923,246.497z"/>
	<path style="fill:#194F82;" d="M237.77,246.497l6.335-20.493h8.275l6.271,20.493l7.111-20.493h8.663l-12.412,35.62h-5.883
		l-7.822-24.76l-7.758,24.76h-5.883l-12.477-35.62h8.598L237.77,246.497z"/>
</g>
<g>
	<rect x="21.851" y="335.515" style="fill:#FFC10D;" width="348.962" height="35.232"/>
	<path style="fill:#FFC10D;" d="M333.253,96.065h36.784c-1.487-11.378-5.172-21.915-10.602-31.418
		c-9.438,2.521-18.941,4.655-28.509,6.206C332.089,78.998,332.865,87.467,333.253,96.065z"/>
	<path style="fill:#FFC10D;" d="M309.204,73.503c-7.887,0.711-15.709,1.034-23.596,1.034s-15.774-0.388-23.596-1.034
		c-1.099,6.982-1.875,14.481-2.263,22.562h51.588C311.079,87.919,310.303,80.42,309.204,73.503z"/>
	<path style="fill:#FFC10D;" d="M370.036,117.85h-36.784c-0.388,8.598-1.164,17.067-2.327,25.277
		c9.568,1.552,19.071,3.62,28.509,6.206C364.865,139.83,368.549,129.164,370.036,117.85z"/>
	<path style="fill:#FFC10D;" d="M201.244,96.065h36.784c0.388-8.598,1.164-17.067,2.392-25.277
		c-9.568-1.552-19.071-3.62-28.509-6.206C206.352,74.085,202.731,84.687,201.244,96.065z"/>
	<path style="fill:#FFC10D;" d="M326.529,49.39c6.077-1.034,12.218-2.133,18.23-3.62c-7.37-7.111-15.968-12.929-25.471-17.067
		C322.133,34.909,324.525,41.891,326.529,49.39z"/>
	<path style="fill:#FFC10D;" d="M252.057,28.768c-9.503,4.073-18.101,9.891-25.471,17.002c6.012,1.422,12.154,2.651,18.23,3.62
		C246.82,41.891,249.212,34.909,252.057,28.768z"/>
	<path style="fill:#FFC10D;" d="M266.796,51.976c12.606,0.905,25.212,0.905,37.818,0c-5.689-19.329-13.576-30.19-18.877-30.19
		C280.307,21.786,272.42,32.711,266.796,51.976z"/>
	<path style="fill:#FFC10D;" d="M309.204,140.412c1.099-6.982,1.875-14.481,2.263-22.562h-51.588
		c0.388,8.145,1.164,15.58,2.263,22.562C277.786,139.055,293.56,139.055,309.204,140.412z"/>
	<path style="fill:#FFC10D;" d="M304.485,161.939c-12.606-0.905-25.212-0.905-37.818,0c5.689,19.329,13.576,30.125,18.877,30.125
		C290.909,192.065,298.796,181.269,304.485,161.939z"/>
	<path style="fill:#FFC10D;" d="M211.846,149.333c9.438-2.521,18.941-4.655,28.509-6.206c-1.228-8.21-2.004-16.679-2.327-25.277
		h-36.784C202.731,129.164,206.352,139.83,211.846,149.333z"/>
	<path style="fill:#FFC10D;" d="M326.529,164.525c-2.004,7.499-4.396,14.481-7.24,20.622c9.503-4.073,18.101-9.891,25.406-17.002
		C338.683,166.723,332.671,165.495,326.529,164.525z"/>
	<path style="fill:#FFC10D;" d="M226.521,168.145c7.37,7.111,15.903,12.929,25.406,17.002c-2.844-6.206-5.236-13.123-7.176-20.622
		C238.675,165.495,232.598,166.723,226.521,168.145z"/>
</g>
<path style="fill:#194F82;" d="M381.737,313.729h-20.493V182.497c19.329-19.394,31.354-46.158,31.354-75.572
	C392.598,47.968,344.63,0,285.673,0c-44.541,0-82.747,27.345-98.844,66.133H42.343c-6.012,0-10.925,4.848-10.925,10.925v236.671
	H10.925C4.913,313.729,0,318.578,0,324.655v57.018c0,6.012,4.848,10.925,10.925,10.925h370.747c6.012,0,10.925-4.849,10.925-10.925
	v-57.018C392.598,318.578,387.749,313.729,381.737,313.729z M370.812,370.747H21.851v-35.232h348.962L370.812,370.747
	L370.812,370.747z M370.036,96.065h-36.784c-0.388-8.598-1.164-17.067-2.392-25.277c9.568-1.552,19.071-3.62,28.509-6.206
	C364.865,74.085,368.549,84.687,370.036,96.065z M113.907,180.493H96.776v-13.059h38.853c6.012,0,10.925-4.848,10.925-10.925
	c0-6.012-4.848-10.925-10.925-10.925H96.776v-14.158h84.816c11.119,47.127,53.463,82.36,104.016,82.36
	c3.491,0,6.788-0.259,10.214-0.517v56.695H96.776v-67.685h17.067c6.012,0,10.925-4.848,10.925-10.925
	C124.768,185.341,119.919,180.493,113.907,180.493z M259.879,117.85h51.588c-0.388,8.145-1.164,15.58-2.263,22.562
	c-15.709-1.293-31.418-1.293-47.127,0C260.978,133.495,260.267,125.931,259.879,117.85z M344.695,168.145
	c-7.37,7.111-15.903,12.929-25.406,17.002c2.844-6.206,5.236-13.123,7.24-20.622C332.671,165.495,338.683,166.723,344.695,168.145z
	 M330.925,143.127c1.228-8.21,2.004-16.679,2.327-25.277h36.784c-1.487,11.378-5.172,21.915-10.602,31.418
	C349.931,146.747,340.428,144.743,330.925,143.127z M226.521,168.145c6.012-1.422,12.154-2.65,18.23-3.62
	c2.004,7.499,4.396,14.481,7.176,20.622C242.489,181.075,233.891,175.257,226.521,168.145z M266.731,161.939
	c12.606-0.905,25.212-0.905,37.818,0c-5.689,19.329-13.576,30.125-18.877,30.125C280.307,192.065,272.42,181.269,266.731,161.939z
	 M259.879,96.065c0.388-8.145,1.164-15.58,2.263-22.562c7.887,0.711,15.709,1.034,23.596,1.034s15.774-0.388,23.596-1.034
	c1.099,6.982,1.875,14.481,2.263,22.562H259.879z M240.356,143.127c-9.568,1.552-19.071,3.62-28.509,6.206
	c-5.495-9.503-9.18-20.105-10.602-31.418h36.784C238.352,126.384,239.127,134.917,240.356,143.127z M326.529,49.39
	c-2.004-7.499-4.396-14.481-7.24-20.622c9.503,4.073,18.166,9.956,25.471,17.067C338.747,47.192,332.671,48.42,326.529,49.39z
	 M304.485,51.976c-12.606,0.905-25.212,0.905-37.818,0c5.689-19.329,13.576-30.125,18.877-30.125
	C290.974,21.786,298.796,32.711,304.485,51.976z M252.057,28.768c-2.844,6.206-5.236,13.123-7.24,20.622
	c-6.077-1.034-12.154-2.133-18.23-3.62C233.891,38.659,242.554,32.84,252.057,28.768z M240.356,70.788
	c-1.228,8.21-2.004,16.679-2.392,25.277H201.18c1.487-11.378,5.172-21.915,10.602-31.418
	C221.285,67.168,230.788,69.236,240.356,70.788z M53.204,87.919h127.289c-1.099,6.206-1.745,12.541-1.745,19.006
	c0,0.905,0.129,1.875,0.129,2.78H85.915c-6.012,0-10.925,4.848-10.925,10.925v160.323c0,6.012,4.848,10.925,10.925,10.925h220.832
	c6.012,0,10.925-4.848,10.925-10.925v-72.081c7.628-2.457,14.998-5.624,21.786-9.632v114.489H53.204V87.919z"/>
<g>
</g>
<g>
</g>
<g>
</g>
<g>
</g>
<g>
</g>
<g>
</g>
<g>
</g>
<g>
</g>
<g>
</g>
<g>
</g>
<g>
</g>
<g>
</g>
<g>
</g>
<g>
</g>
<g>
</g>
</svg>
