<?xml version="1.0" encoding="iso-8859-1"?>
<!-- Generator: Adobe Illustrator 19.0.0, SVG Export Plug-In . SVG Version: 6.00 Build 0)  -->
<svg version="1.1" id="Layer_1" xmlns="http://www.w3.org/2000/svg" xmlns:xlink="http://www.w3.org/1999/xlink" x="0px" y="0px"
	 viewBox="0 0 392.598 392.598" style="enable-background:new 0 0 392.598 392.598;" xml:space="preserve">
<path style="fill:#FFC10D;" d="M370.78,32.711c0-6.012-4.848-10.925-10.925-10.925H32.743c-6.012,0-10.925,4.848-10.925,10.925
	v60.251H370.78L370.78,32.711L370.78,32.711z"/>
<path style="fill:#FFFFFF;" d="M21.818,359.822c0,6.012,4.848,10.925,10.925,10.925h121.471v-21.786H43.669v-120.76h29.156
	c6.012,0,10.925-4.848,10.925-10.925c0-6.012-4.848-10.925-10.925-10.925h-29.22v-21.657H94.61c6.012,0,10.925-4.848,10.925-10.925
	c0-6.012-4.848-10.925-10.925-10.925H43.604v-26.376h305.325v212.364H238.384v21.786h121.471c6.012,0,10.925-4.848,10.925-10.925
	V114.747H21.818V359.822z"/>
<path style="fill:#56ACE0;" d="M348.994,136.598H43.604v26.376H94.61c6.012,0,10.925,4.848,10.925,10.925
	s-4.848,10.925-10.925,10.925H43.604v21.657h29.22c6.012,0,10.925,4.848,10.925,10.925c0,6.012-4.848,10.925-10.925,10.925h-29.22
	v120.695H154.15v-51.911h-27.733c-4.396,0-8.404-2.65-10.02-6.723c-1.681-4.073-0.776-8.727,2.392-11.895l69.883-69.883
	c4.267-4.267,11.119-4.267,15.451,0l68.913,68.913c2.521,2.004,4.202,5.107,4.202,8.598c0,6.012-4.784,11.055-10.99,10.925
	c0,0,0,0-0.065,0h-27.733v51.782h110.545L348.994,136.598L348.994,136.598z"/>
<path style="fill:#FFFFFF;" d="M216.533,286.19c0-6.012,4.848-10.925,10.925-10.925h12.283l-43.442-43.442l-43.507,43.507h12.283
	c6.012,0,10.925,4.848,10.925,10.925v84.558h40.598V286.19H216.533z"/>
<g>
	<path style="fill:#194F82;" d="M359.855,0H32.743C14.707,0,0.032,14.675,0.032,32.711v327.111
		c0,18.101,14.675,32.776,32.711,32.776h327.111c18.036,0,32.711-14.675,32.711-32.711V32.711C392.566,14.675,377.891,0,359.855,0z
		 M21.818,32.711c0-6.012,4.848-10.925,10.925-10.925h327.111c6.012,0,10.925,4.848,10.925,10.925v60.251H21.818V32.711z
		 M216.598,286.19v84.558H176V286.19c0-6.012-4.848-10.925-10.925-10.925h-12.283l43.507-43.442l43.507,43.507h-12.283
		C221.511,275.329,216.598,280.178,216.598,286.19z M370.78,359.822L370.78,359.822c0,6.012-4.848,10.925-10.925,10.925H238.384
		v-73.632h27.733c0,0,0,0,0.065,0c6.206,0.129,10.99-4.848,10.99-10.925c0-3.491-1.616-6.594-4.202-8.598l-68.913-68.913
		c-4.267-4.267-11.119-4.267-15.451,0l-69.883,69.883c-3.103,3.103-4.008,7.822-2.392,11.895c1.681,4.073,5.624,6.723,10.02,6.723
		h27.733v73.632H32.743c-6.012,0-10.925-4.849-10.925-10.925V114.747H370.78L370.78,359.822L370.78,359.822z"/>
	<path style="fill:#194F82;" d="M218.02,46.158h-13.834c-6.012,0-10.925,4.848-10.925,10.925c0,6.012,4.848,10.99,10.925,10.99
		h13.834c6.012,0,10.925-4.848,10.925-10.925S224.032,46.158,218.02,46.158z"/>
	<path style="fill:#194F82;" d="M277.172,46.158h-13.834c-6.012,0-10.925,4.848-10.925,10.925c0,6.012,4.848,10.99,10.925,10.99
		h13.834c6.012,0,10.925-4.848,10.925-10.925S283.184,46.158,277.172,46.158z"/>
	<path style="fill:#194F82;" d="M336.323,46.158h-13.834c-6.012,0-10.925,4.848-10.925,10.925c0,6.012,4.848,10.99,10.925,10.99
		h13.834c6.012,0,10.925-4.848,10.925-10.925S342.335,46.158,336.323,46.158z"/>
</g>
<g>
</g>
<g>
</g>
<g>
</g>
<g>
</g>
<g>
</g>
<g>
</g>
<g>
</g>
<g>
</g>
<g>
</g>
<g>
</g>
<g>
</g>
<g>
</g>
<g>
</g>
<g>
</g>
<g>
</g>
</svg>
