<?xml version="1.0" encoding="iso-8859-1"?>
<!-- Generator: Adobe Illustrator 19.0.0, SVG Export Plug-In . SVG Version: 6.00 Build 0)  -->
<svg version="1.1" id="Layer_1" xmlns="http://www.w3.org/2000/svg" xmlns:xlink="http://www.w3.org/1999/xlink" x="0px" y="0px"
	 viewBox="0 0 392.507 392.507" style="enable-background:new 0 0 392.507 392.507;" xml:space="preserve">
<g>
	<path style="fill:#FFFFFF;" d="M164.44,237.142h63.677c1.487-9.18,2.521-19.265,2.909-30.061h-69.56
		C161.854,217.942,162.953,227.962,164.44,237.142z"/>
	<path style="fill:#FFFFFF;" d="M169.224,133.449h54.109c-7.37-25.859-18.36-40.857-27.022-40.857
		C187.584,92.528,176.529,107.526,169.224,133.449z"/>
	<path style="fill:#FFFFFF;" d="M146.727,133.449c3.168-12.671,7.37-24.242,12.412-33.939
		c-18.101,6.982-33.681,18.747-45.253,33.939H146.727L146.727,133.449z"/>
	<path style="fill:#FFFFFF;" d="M93.135,185.296h46.545c0.388-10.15,1.293-20.234,2.78-30.061h-41.438
		C97.014,164.674,94.234,174.758,93.135,185.296z"/>
	<path style="fill:#FFFFFF;" d="M250.032,155.235c1.487,9.826,2.392,19.911,2.78,30.061h46.545
		c-1.099-10.602-3.879-20.622-7.887-30.061H250.032z"/>
	<path style="fill:#FFFFFF;" d="M228.052,155.235h-63.677c-1.487,9.18-2.521,19.265-2.909,30.061h69.56
		C230.638,174.5,229.539,164.48,228.052,155.235z"/>
	<path style="fill:#FFFFFF;" d="M278.541,133.449c-11.572-15.127-27.216-26.958-45.253-33.939
		c5.107,9.632,9.244,21.269,12.412,33.939H278.541L278.541,133.449z"/>
	<path style="fill:#FFFFFF;" d="M142.46,237.142c-1.487-9.826-2.392-19.911-2.78-30.061H93.135
		c1.099,10.602,3.879,20.622,7.887,30.061H142.46z"/>
	<path style="fill:#FFFFFF;" d="M299.357,207.082h-46.545c-0.388,10.15-1.293,20.234-2.78,30.061h41.438
		C295.479,227.704,298.258,217.684,299.357,207.082z"/>
	<path style="fill:#FFFFFF;" d="M245.765,258.928c-3.168,12.671-7.37,24.242-12.541,33.939
		c18.101-6.982,33.681-18.747,45.253-33.939L245.765,258.928L245.765,258.928z"/>
	<path style="fill:#FFFFFF;" d="M223.268,258.928h-54.109c7.37,25.859,18.36,40.857,27.022,40.857
		C204.909,299.914,215.963,284.916,223.268,258.928z"/>
	<path style="fill:#FFFFFF;" d="M159.204,292.932c-5.172-9.632-9.374-21.269-12.541-33.939h-32.84
		C125.523,274.12,141.167,286.015,159.204,292.932z"/>
</g>
<path style="fill:#194F82;" d="M389.281,188.528l-33.293-33.293c-4.267-4.267-11.119-4.267-15.451,0
	c-4.267,4.267-4.267,11.119,0,15.451l14.675,14.675h-34.004c-5.172-60.509-53.527-108.865-114.036-114.101V37.255l14.675,14.675
	c4.267,4.267,11.184,4.267,15.451,0c4.267-4.267,4.267-11.119,0-15.451L204.004,3.251c-6.4-6.012-13.317-2.133-15.451,0
	L155.26,36.544c-4.267,4.267-4.267,11.119,0,15.451c4.267,4.267,11.119,4.267,15.451,0l14.675-14.675v33.939
	C124.877,76.496,76.521,124.916,71.349,185.36H37.281l14.675-14.675c4.267-4.267,4.267-11.184,0-15.451s-11.119-4.267-15.451,0
	L3.212,188.528c-6.012,6.4-2.133,13.317,0,15.451l33.293,33.293c4.267,4.267,11.119,4.267,15.451,0
	c4.267-4.267,4.267-11.119,0-15.451l-14.675-14.675h34.069c5.236,60.444,53.527,108.735,114.036,113.972v34.069l-14.675-14.675
	c-4.267-4.267-11.184-4.267-15.451,0c-4.267,4.267-4.267,11.119,0,15.451l33.293,33.293c6.4,6.012,13.317,2.133,15.451,0
	l33.293-33.293c4.267-4.267,4.267-11.119,0-15.451c-4.267-4.267-11.119-4.267-15.451,0l-14.61,14.739v-34.069
	c60.509-5.236,108.8-53.527,114.036-113.972h34.004l-14.675,14.675c-4.267,4.267-4.267,11.184,0,15.451
	c4.267,4.267,11.119,4.267,15.451,0l33.293-33.293C395.293,197.579,391.414,190.726,389.281,188.528z M278.541,133.449h-32.84
	c-3.168-12.671-7.37-24.242-12.412-33.939C251.325,106.492,266.969,118.322,278.541,133.449z M161.466,185.296
	c0.388-10.796,1.487-20.881,2.909-30.061h63.677c1.487,9.18,2.521,19.265,2.909,30.061H161.466L161.466,185.296z M231.026,207.082
	c-0.388,10.796-1.487,20.881-2.909,30.061H164.44c-1.487-9.18-2.521-19.265-2.909-30.061H231.026z M223.268,133.449h-54.109
	c7.37-25.859,18.36-40.857,27.022-40.857C204.909,92.528,215.963,107.526,223.268,133.449z M159.204,99.51
	c-5.107,9.632-9.244,21.269-12.412,33.939h-32.84C125.523,118.322,141.167,106.492,159.204,99.51z M142.46,155.235
	c-1.487,9.826-2.392,19.911-2.78,30.061H93.135c1.099-10.602,3.879-20.622,7.887-30.061H142.46z M139.681,207.082
	c0.388,10.15,1.293,20.234,2.78,30.061h-41.438c-4.008-9.374-6.788-19.459-7.887-30.061H139.681z M146.727,258.928
	c3.168,12.671,7.37,24.242,12.541,33.939c-18.101-6.982-33.681-18.747-45.253-33.939L146.727,258.928L146.727,258.928z
	 M169.224,258.928h54.109c-7.37,25.859-18.36,40.857-27.022,40.857C187.584,299.914,176.529,284.916,169.224,258.928z
	 M233.289,292.932c5.172-9.632,9.374-21.269,12.541-33.939h32.84C266.969,274.12,251.325,286.015,233.289,292.932z M250.032,237.142
	c1.487-9.826,2.392-19.911,2.78-30.061h46.545c-1.099,10.602-3.879,20.622-7.887,30.061H250.032z M252.812,185.296
	c-0.388-10.15-1.293-20.234-2.78-30.061h41.438c4.008,9.374,6.788,19.459,7.887,30.061H252.812L252.812,185.296z"/>
<g>
	<path style="fill:#FFC10D;" d="M164.44,155.235c-1.487,9.18-2.521,19.265-2.909,30.061h69.56
		c-0.388-10.796-1.487-20.881-2.909-30.061H164.44z"/>
	<path style="fill:#FFC10D;" d="M217.644,117.288c-6.853-1.875-13.964-2.909-21.398-2.909c-7.434,0-14.61,1.099-21.398,2.909
		c-2.004,4.784-3.943,10.15-5.624,16.162h54.109C221.588,127.437,219.648,122.136,217.644,117.288z"/>
	<path style="fill:#FFC10D;" d="M277.248,185.296c-1.487-10.796-5.042-20.945-10.279-30.061h-17.002
		c1.552,9.826,2.457,19.911,2.844,30.061H277.248z"/>
	<path style="fill:#FFC10D;" d="M143.818,258.928c1.228,1.034,2.457,1.939,3.685,2.844c-0.259-0.905-0.517-1.875-0.776-2.844
		H143.818z"/>
	<path style="fill:#FFC10D;" d="M146.792,133.449c0.259-1.034,0.453-1.939,0.776-2.844c-1.228,0.905-2.521,1.875-3.685,2.844
		H146.792z"/>
	<path style="fill:#FFC10D;" d="M164.44,237.142h63.677c1.487-9.18,2.521-19.265,2.909-30.061h-69.56
		C161.854,217.942,162.953,227.962,164.44,237.142z"/>
	<path style="fill:#FFC10D;" d="M174.848,275.09c6.853,1.875,13.964,2.909,21.398,2.909c7.434,0,14.61-1.099,21.398-2.909
		c2.004-4.784,3.943-10.15,5.624-16.162h-54.109C170.905,265.005,172.844,270.306,174.848,275.09z"/>
	<path style="fill:#FFC10D;" d="M252.812,207.082c-0.388,10.15-1.293,20.234-2.78,30.061h17.002
		c5.236-9.051,8.792-19.265,10.279-30.061H252.812z"/>
	<path style="fill:#FFC10D;" d="M115.18,185.296h24.501c0.388-10.15,1.293-20.234,2.78-30.061h-17.002
		C120.222,164.286,116.666,174.5,115.18,185.296z"/>
	<path style="fill:#FFC10D;" d="M115.18,207.082c1.487,10.796,5.042,20.945,10.279,30.061h17.002
		c-1.487-9.826-2.392-19.911-2.78-30.061H115.18z"/>
	<path style="fill:#FFC10D;" d="M244.925,261.837c1.228-0.905,2.521-1.875,3.685-2.844h-2.909
		C245.571,259.962,245.248,260.867,244.925,261.837z"/>
	<path style="fill:#FFC10D;" d="M245.701,133.449h2.909c-1.164-1.034-2.392-1.939-3.685-2.844
		C245.184,131.51,245.507,132.48,245.701,133.449z"/>
</g>
<g>
</g>
<g>
</g>
<g>
</g>
<g>
</g>
<g>
</g>
<g>
</g>
<g>
</g>
<g>
</g>
<g>
</g>
<g>
</g>
<g>
</g>
<g>
</g>
<g>
</g>
<g>
</g>
<g>
</g>
</svg>
