<?xml version="1.0" encoding="iso-8859-1"?>
<!-- Generator: Adobe Illustrator 19.0.0, SVG Export Plug-In . SVG Version: 6.00 Build 0)  -->
<svg version="1.1" id="Layer_1" xmlns="http://www.w3.org/2000/svg" xmlns:xlink="http://www.w3.org/1999/xlink" x="0px" y="0px"
	 viewBox="0 0 392.598 392.598" style="enable-background:new 0 0 392.598 392.598;" xml:space="preserve">
<path style="fill:#56ACE0;" d="M370.78,32.711c0-6.012-4.848-10.925-10.925-10.925H32.743c-6.012,0-10.925,4.848-10.925,10.925
	v52.17H370.78L370.78,32.711L370.78,32.711z"/>
<path style="fill:#FFFFFF;" d="M21.818,359.822c0,6.012,4.848,10.925,10.925,10.925h327.111c6.012,0,10.925-4.848,10.925-10.925
	V106.731H21.818V359.822z"/>
<rect x="43.604" y="128.517" style="fill:#FFC10D;" width="305.325" height="220.444"/>
<g>
	<path style="fill:#194F82;" d="M359.855,0H32.743C14.707,0,0.032,14.675,0.032,32.711v327.111
		c0,18.101,14.675,32.776,32.711,32.776h327.111c18.036,0,32.711-14.675,32.711-32.711V32.711C392.566,14.675,377.891,0,359.855,0z
		 M21.818,32.711c0-6.012,4.848-10.925,10.925-10.925h327.111c6.012,0,10.925,4.848,10.925,10.925v52.17H21.818V32.711z
		 M370.78,359.822L370.78,359.822c0,6.012-4.848,10.925-10.925,10.925H32.743c-6.012,0-10.925-4.848-10.925-10.925V106.731H370.78
		L370.78,359.822L370.78,359.822z"/>
	<path style="fill:#194F82;" d="M334.319,40.533h-16.937c-6.012,0-10.925,4.848-10.925,10.925s4.848,10.925,10.925,10.925h16.937
		c6.012,0,10.925-4.848,10.925-10.925S340.331,40.533,334.319,40.533z"/>
	<path style="fill:#194F82;" d="M270.772,40.533h-16.937c-6.012,0-10.925,4.848-10.925,10.925s4.848,10.925,10.925,10.925h16.937
		c6.012,0,10.925-4.848,10.925-10.925S276.849,40.533,270.772,40.533z"/>
	<path style="fill:#194F82;" d="M204.768,40.533H67.846c-6.012,0-10.925,4.848-10.925,10.925s4.848,10.925,10.925,10.925h136.921
		c6.012,0,10.925-4.848,10.925-10.925S210.844,40.533,204.768,40.533z"/>
	<path style="fill:#194F82;" d="M77.996,213.139l-12.929,15.709c9.956,8.792,20.816,14.158,32.517,15.968v10.15h14.739v-9.762
		c8.857-1.034,15.968-4.073,21.333-9.244c5.301-5.172,7.952-11.766,7.952-19.717s-2.392-14.158-7.176-18.489
		c-4.784-4.396-12.218-7.822-22.174-10.408v-20.04c4.913,1.422,10.408,4.202,16.226,8.339l11.378-16.356
		c-9.18-6.4-18.36-10.214-27.669-11.507v-7.111H97.519v6.853c-8.404,1.034-15.192,4.073-20.428,9.18
		c-5.172,5.107-7.822,11.636-7.822,19.523s2.263,13.899,6.788,18.166c4.59,4.202,11.636,7.564,21.398,10.02v20.687
		C91.766,223.483,85.172,219.475,77.996,213.139z M112.323,208.808c2.715,1.164,4.59,2.327,5.56,3.62
		c0.97,1.293,1.552,2.909,1.552,4.848c0,4.267-2.327,7.111-7.111,8.598V208.808z M91.701,174.416c0-3.685,1.939-6.271,5.947-7.628
		v16.162C93.705,180.881,91.701,178.101,91.701,174.416z"/>
	<path style="fill:#194F82;" d="M66.877,296.339h95.483c6.012,0,10.925-4.848,10.99-10.925c0-6.012-4.848-10.925-10.925-10.925
		H66.877c-6.012,0-10.925,4.848-10.925,10.925S60.865,296.339,66.877,296.339z"/>
	<path style="fill:#194F82;" d="M230.238,296.339h95.483c6.012,0,10.99-4.848,10.99-10.925c0-6.012-4.848-10.925-10.925-10.925
		h-95.548c-6.012,0-10.925,4.848-10.925,10.925S224.226,296.339,230.238,296.339z"/>
	<path style="fill:#194F82;" d="M66.877,338.23h95.483c6.012,0,10.925-4.848,10.99-10.925c0-6.012-4.848-10.925-10.925-10.925
		H66.877c-6.012,0-10.925,4.848-10.925,10.925S60.865,338.23,66.877,338.23z"/>
	<path style="fill:#194F82;" d="M230.238,338.23h95.483c6.012,0,10.99-4.848,10.99-10.925c0-6.012-4.848-10.925-10.925-10.925
		h-95.548c-6.012,0-10.925,4.848-10.925,10.925S224.226,338.23,230.238,338.23z"/>
	<path style="fill:#194F82;" d="M230.238,209.972h95.483c6.012,0,10.99-4.848,10.99-10.925c0-6.012-4.848-10.925-10.925-10.925
		h-95.548c-6.012,0-10.925,4.848-10.925,10.925C219.313,205.059,224.226,209.972,230.238,209.972z"/>
	<path style="fill:#194F82;" d="M230.238,251.798h95.483c6.012,0,10.99-4.848,10.99-10.925c0-6.012-4.848-10.925-10.925-10.925
		h-95.548c-6.012,0-10.925,4.848-10.925,10.925S224.226,251.798,230.238,251.798z"/>
	<path style="fill:#194F82;" d="M230.238,165.43h95.483c6.012,0,10.99-4.848,10.99-10.925c0-6.077-4.848-10.925-10.925-10.925
		h-95.548c-6.012,0-10.925,4.848-10.925,10.925C219.313,160.582,224.226,165.43,230.238,165.43z"/>
</g>
<g>
</g>
<g>
</g>
<g>
</g>
<g>
</g>
<g>
</g>
<g>
</g>
<g>
</g>
<g>
</g>
<g>
</g>
<g>
</g>
<g>
</g>
<g>
</g>
<g>
</g>
<g>
</g>
<g>
</g>
</svg>
