<?xml version="1.0" encoding="iso-8859-1"?>
<!-- Generator: Adobe Illustrator 19.0.0, SVG Export Plug-In . SVG Version: 6.00 Build 0)  -->
<svg version="1.1" id="Layer_1" xmlns="http://www.w3.org/2000/svg" xmlns:xlink="http://www.w3.org/1999/xlink" x="0px" y="0px"
	 viewBox="0 0 392.598 392.598" style="enable-background:new 0 0 392.598 392.598;" xml:space="preserve">
<path style="fill:#FFFFFF;" d="M359.855,155.927H32.743c-6.012,0-10.925,4.848-10.925,10.925v193.034
	c0,6.012,4.848,10.925,10.925,10.925h327.111c6.012,0,10.925-4.848,10.925-10.925V166.788
	C370.78,160.776,365.867,155.927,359.855,155.927z"/>
<rect x="43.604" y="177.713" style="fill:#56ACE0;" width="305.325" height="171.313"/>
<g>
	<path style="fill:#194F82;" d="M83.491,186.376H64.485c-6.012,0-10.925,4.848-10.925,10.925c0,6.012,4.848,10.925,10.925,10.925
		h19.006c6.012,0,10.99-4.848,10.925-10.925C94.352,191.224,89.503,186.376,83.491,186.376z"/>
	<path style="fill:#194F82;" d="M125.576,208.162h19.071c6.012,0,10.925-4.848,10.925-10.925c0-6.012-4.848-10.925-10.925-10.925
		h-19.071c-6.012,0-10.925,4.848-10.925,10.925C114.715,203.313,119.564,208.162,125.576,208.162z"/>
	<path style="fill:#194F82;" d="M205.802,186.376h-19.071c-6.012,0-10.925,4.848-10.925,10.925c0,6.012,4.848,10.925,10.925,10.925
		h19.071c6.012,0,10.99-4.848,10.925-10.925C216.727,191.224,211.814,186.376,205.802,186.376z"/>
	<path style="fill:#194F82;" d="M267.022,186.376h-19.071c-6.012,0-10.925,4.848-10.925,10.925c0,6.012,4.848,10.925,10.925,10.925
		h19.071c6.012,0,10.925-4.848,10.925-10.925C277.883,191.224,273.034,186.376,267.022,186.376z"/>
	<path style="fill:#194F82;" d="M328.178,186.376h-19.071c-6.012,0-10.925,4.848-10.925,10.925c0,6.012,4.848,10.925,10.925,10.925
		h19.006c6.012,0,10.925-4.848,10.99-10.925C339.103,191.224,334.255,186.376,328.178,186.376z"/>
	<path style="fill:#194F82;" d="M83.491,230.4H64.485c-6.012,0-10.925,4.848-10.925,10.925c0,6.012,4.848,10.925,10.925,10.925
		h19.006c6.012,0,10.99-4.848,10.925-10.925C94.352,235.249,89.503,230.4,83.491,230.4z"/>
	<path style="fill:#194F82;" d="M125.576,252.186h19.071c6.012,0,10.925-4.848,10.925-10.925c0-6.012-4.848-10.925-10.925-10.925
		h-19.071c-6.012,0-10.925,4.848-10.925,10.925C114.715,247.337,119.564,252.186,125.576,252.186z"/>
	<path style="fill:#194F82;" d="M205.802,230.4h-19.071c-6.012,0-10.925,4.848-10.925,10.925c0,6.012,4.848,10.925,10.925,10.925
		h19.071c6.012,0,10.99-4.848,10.925-10.925C216.727,235.249,211.814,230.4,205.802,230.4z"/>
	<path style="fill:#194F82;" d="M267.022,230.4h-19.071c-6.012,0-10.925,4.848-10.925,10.925c0,6.012,4.848,10.925,10.925,10.925
		h19.071c6.012,0,10.925-4.848,10.925-10.925C277.883,235.249,273.034,230.4,267.022,230.4z"/>
	<path style="fill:#194F82;" d="M328.178,230.4h-19.071c-6.012,0-10.925,4.848-10.925,10.925c0,6.012,4.848,10.925,10.925,10.925
		h19.006c6.012,0,10.925-4.848,10.99-10.925C339.103,235.249,334.255,230.4,328.178,230.4z"/>
	<path style="fill:#194F82;" d="M83.491,274.424H64.485c-6.012,0-10.925,4.848-10.925,10.925c0,6.012,4.848,10.925,10.925,10.925
		h19.006c6.012,0,10.99-4.848,10.925-10.925C94.352,279.337,89.503,274.424,83.491,274.424z"/>
	<path style="fill:#194F82;" d="M125.576,296.275h19.071c6.012,0,10.925-4.848,10.925-10.925c0-6.012-4.848-10.925-10.925-10.925
		h-19.071c-6.012,0-10.925,4.848-10.925,10.925C114.715,291.362,119.564,296.275,125.576,296.275z"/>
	<path style="fill:#194F82;" d="M205.802,274.424h-19.071c-6.012,0-10.925,4.848-10.925,10.925c0,6.012,4.848,10.925,10.925,10.925
		h19.071c6.012,0,10.99-4.848,10.925-10.925C216.727,279.337,211.814,274.424,205.802,274.424z"/>
	<path style="fill:#194F82;" d="M267.022,274.424h-19.071c-6.012,0-10.925,4.848-10.925,10.925c0,6.012,4.848,10.925,10.925,10.925
		h19.071c6.012,0,10.925-4.848,10.925-10.925C277.883,279.337,273.034,274.424,267.022,274.424z"/>
	<path style="fill:#194F82;" d="M328.178,274.424h-19.071c-6.012,0-10.925,4.848-10.925,10.925c0,6.012,4.848,10.925,10.925,10.925
		h19.006c6.012,0,10.925-4.848,10.99-10.925C339.103,279.337,334.255,274.424,328.178,274.424z"/>
	<path style="fill:#194F82;" d="M83.491,318.578H64.485c-6.012,0-10.925,4.849-10.925,10.925c0,6.012,4.848,10.925,10.925,10.925
		h19.006c6.012,0,10.99-4.913,10.925-10.925C94.352,323.426,89.503,318.578,83.491,318.578z"/>
	<path style="fill:#194F82;" d="M205.802,318.578h-80.226c-6.012,0-10.925,4.849-10.925,10.925c0,6.012,4.848,10.925,10.925,10.925
		h80.226c6.012,0,10.99-4.913,10.925-10.925C216.727,323.426,211.814,318.578,205.802,318.578z"/>
	<path style="fill:#194F82;" d="M267.022,318.578h-19.071c-6.012,0-10.925,4.849-10.925,10.925c0,6.012,4.848,10.925,10.925,10.925
		h19.071c6.012,0,10.925-4.913,10.925-10.925C277.883,323.426,273.034,318.578,267.022,318.578z"/>
	<path style="fill:#194F82;" d="M328.178,318.578h-19.071c-6.012,0-10.925,4.849-10.925,10.925c0,6.012,4.848,10.925,10.925,10.925
		h19.006c6.012,0,10.925-4.913,10.99-10.925C339.103,323.426,334.255,318.578,328.178,318.578z"/>
	<path style="fill:#194F82;" d="M359.855,134.141h-152.63v-13.77c0-14.093,11.442-25.6,25.6-25.6h79.774
		c26.117,0,47.386-21.269,47.386-47.386S338.715,0,312.598,0H51.943c-6.012,0-10.925,4.848-10.925,10.925
		c0,6.012,4.848,10.925,10.925,10.925h260.59c14.093,0,25.6,11.442,25.6,25.6s-11.442,25.6-25.6,25.6H232.76
		c-26.117,0-47.386,21.269-47.386,47.386v13.77H32.743c-18.036,0-32.711,14.61-32.711,32.711v192.97
		c0,18.036,14.675,32.711,32.711,32.711h327.111c18.036,0,32.711-14.675,32.711-32.711V166.788
		C392.566,148.752,377.891,134.141,359.855,134.141z M359.855,370.812H32.743c-6.012,0-10.925-4.848-10.925-10.925V166.788
		c0-6.012,4.848-10.925,10.925-10.925h327.111c6.012,0,10.925,4.848,10.925,10.925v193.099h0.065
		C370.78,365.964,365.931,370.812,359.855,370.812z"/>
</g>
<g>
</g>
<g>
</g>
<g>
</g>
<g>
</g>
<g>
</g>
<g>
</g>
<g>
</g>
<g>
</g>
<g>
</g>
<g>
</g>
<g>
</g>
<g>
</g>
<g>
</g>
<g>
</g>
<g>
</g>
</svg>
