<?xml version="1.0" encoding="iso-8859-1"?>
<!-- Generator: Adobe Illustrator 19.0.0, SVG Export Plug-In . SVG Version: 6.00 Build 0)  -->
<svg version="1.1" id="Layer_1" xmlns="http://www.w3.org/2000/svg" xmlns:xlink="http://www.w3.org/1999/xlink" x="0px" y="0px"
	 viewBox="0 0 392.727 392.727" style="enable-background:new 0 0 392.727 392.727;" xml:space="preserve">
<path style="fill:#FFFFFF;" d="M189.529,171.248L21.901,34.004v214.691h348.897V34.004L203.364,171.248
	C201.295,172.865,195.606,175.903,189.529,171.248z"/>
<polygon style="fill:#56ACE0;" points="41.554,21.851 196.382,148.622 351.21,21.851 "/>
<path style="fill:#FFC10D;" d="M81.117,130.78c6.012,0,10.925,4.848,10.925,10.925c0,6.012-4.848,10.925-10.925,10.925H43.752
	v21.786h15.515c6.012,0,10.925,4.848,10.925,10.925c0,6.012-4.848,10.925-10.925,10.925H43.752v30.772h305.325V51.846
	L203.364,171.248c-2.004,1.616-7.628,4.719-13.834,0L43.752,51.846v78.869h37.301v0.065H81.117z"/>
<g>
	<path style="fill:#194F82;" d="M10.976,270.545h370.747c6.012,0,10.925-4.848,10.925-10.925V10.925
		C392.649,4.913,387.8,0,381.723,0H10.976C4.964,0,0.051,4.848,0.051,10.925V259.62C0.115,265.632,4.964,270.545,10.976,270.545z
		 M351.21,21.851L196.382,148.622L41.554,21.851H351.21z M21.901,34.004l21.851,17.842l145.778,119.273
		c6.077,4.719,11.83,1.616,13.834,0L349.077,51.782l21.786-17.842v214.756l0,0H21.901V34.004z"/>
	<path style="fill:#194F82;" d="M177.117,330.15c-2.909-5.236-9.632-7.111-14.869-4.073l-10.602,6.012v-12.218
		c0-6.012-4.848-10.925-10.925-10.925c-6.012,0-10.925,4.848-10.925,10.925v12.218l-10.602-6.012
		c-5.236-2.909-11.895-1.164-14.804,4.073c-2.909,5.236-1.164,11.895,4.073,14.869l10.214,5.818l-10.214,5.818
		c-5.236,2.909-7.111,9.632-4.073,14.869c2.909,5.236,9.632,7.111,14.804,4.073l10.602-6.012v12.218
		c0,6.012,4.848,10.925,10.925,10.925c6.012,0,10.925-4.848,10.925-10.925v-12.218l10.602,6.012
		c5.236,2.909,11.895,1.164,14.869-4.073c2.909-5.236,1.164-11.895-4.073-14.869l-10.214-5.818l10.214-5.818
		C178.281,342.044,180.156,335.321,177.117,330.15z"/>
	<path style="fill:#194F82;" d="M74.265,330.15c-2.909-5.236-9.632-7.111-14.869-4.073l-10.667,5.947v-12.218
		c0-6.012-4.848-10.925-10.925-10.925c-6.012,0-10.925,4.848-10.925,10.925v12.218l-10.602-6.012
		c-5.236-2.909-11.895-1.164-14.804,4.073s-1.164,11.895,4.073,14.869l10.214,5.818L5.546,356.59
		c-5.236,2.909-7.111,9.632-4.073,14.869c2.909,5.236,9.632,7.111,14.804,4.073l10.602-6.012v12.218
		c0,6.012,4.848,10.925,10.925,10.925c6.012,0,10.925-4.784,10.925-10.796v-12.218l10.602,6.012
		c5.236,2.909,11.895,1.164,14.804-4.073c2.909-5.236,1.164-11.895-4.073-14.869l-10.214-5.818l10.214-5.818
		C75.364,342.044,77.239,335.321,74.265,330.15z"/>
	<path style="fill:#194F82;" d="M381.788,355.232h-76.283c-6.012,0-10.925,4.848-10.925,10.925c0,6.012,4.849,10.925,10.925,10.925
		h76.283c6.012,0,10.925-4.848,10.925-10.925C392.649,360.081,387.8,355.232,381.788,355.232z"/>
	<path style="fill:#194F82;" d="M280.099,330.15c-2.909-5.236-9.632-7.111-14.869-4.073l-10.602,6.012v-12.218
		c0-6.012-4.848-10.925-10.925-10.925c-6.012,0-10.925,4.848-10.925,10.925v12.218l-10.602-6.012
		c-5.236-2.909-11.895-1.164-14.869,4.073c-2.974,5.236-1.164,11.895,4.073,14.869l10.214,5.818l-10.214,5.818
		c-5.236,2.909-7.111,9.632-4.073,14.869c2.909,5.236,9.632,7.111,14.869,4.073l10.602-6.012v12.218
		c0,6.012,4.848,10.925,10.925,10.925s10.925-4.848,10.925-10.925v-12.218l10.602,6.012c5.236,2.909,11.895,1.164,14.869-4.073
		c2.909-5.236,1.164-11.895-4.073-14.869l-10.214-5.818l10.214-5.818C281.198,342.044,283.008,335.321,280.099,330.15z"/>
</g>
<g>
</g>
<g>
</g>
<g>
</g>
<g>
</g>
<g>
</g>
<g>
</g>
<g>
</g>
<g>
</g>
<g>
</g>
<g>
</g>
<g>
</g>
<g>
</g>
<g>
</g>
<g>
</g>
<g>
</g>
</svg>
