<?xml version="1.0" encoding="iso-8859-1"?>
<!-- Generator: Adobe Illustrator 19.0.0, SVG Export Plug-In . SVG Version: 6.00 Build 0)  -->
<svg version="1.1" id="Layer_1" xmlns="http://www.w3.org/2000/svg" xmlns:xlink="http://www.w3.org/1999/xlink" x="0px" y="0px"
	 viewBox="0 0 392.598 392.598" style="enable-background:new 0 0 392.598 392.598;" xml:space="preserve">
<path style="fill:#FFFFFF;" d="M21.818,359.822c0,6.012,4.848,10.925,10.925,10.925h327.111c6.012,0,10.925-4.848,10.925-10.925
	V114.747H21.818V359.822z"/>
<path style="fill:#56ACE0;" d="M308.784,217.277c0-6.012,4.848-10.925,10.925-10.925h29.22v-21.657h-51.006
	c-6.012,0-10.925-4.848-10.925-10.925c0-6.077,4.848-10.925,10.925-10.925h51.006v-26.376H43.604v212.364h305.325v-120.63h-29.22
	C313.762,228.202,308.784,223.289,308.784,217.277z"/>
<path style="fill:#FFC10D;" d="M370.78,32.711c0-6.012-4.848-10.925-10.925-10.925H32.743c-6.012,0-10.925,4.848-10.925,10.925
	v60.251H370.78L370.78,32.711L370.78,32.711z"/>
<g>
	<path style="fill:#194F82;" d="M359.855,0H32.743C14.707,0,0.032,14.675,0.032,32.711v327.111
		c0,18.101,14.675,32.776,32.711,32.776h327.111c18.036,0,32.711-14.675,32.711-32.711V32.711C392.566,14.675,377.891,0,359.855,0z
		 M370.78,359.822c0,6.012-4.848,10.925-10.925,10.925H32.743c-6.012,0-10.925-4.848-10.925-10.925V114.747H370.78L370.78,359.822
		L370.78,359.822z M21.818,32.711c0-6.012,4.848-10.925,10.925-10.925h327.111c6.012,0,10.925,4.848,10.925,10.925v60.251H21.818
		V32.711z"/>
	<path style="fill:#194F82;" d="M188.412,46.158h-13.834c-6.012,0-10.925,4.848-10.925,10.925s4.848,10.99,10.925,10.99h13.834
		c6.012,0,10.925-4.848,10.925-10.925C199.337,51.071,194.424,46.158,188.412,46.158z"/>
	<path style="fill:#194F82;" d="M129.196,46.158h-13.834c-6.012,0-10.925,4.848-10.925,10.925s4.978,10.99,10.925,10.99h13.834
		c6.012,0,10.925-4.848,10.925-10.925C140.121,51.071,135.273,46.158,129.196,46.158z"/>
	<path style="fill:#194F82;" d="M70.109,46.158H56.275c-6.012,0-10.925,4.848-10.925,10.925s4.848,10.99,10.925,10.99h13.834
		c6.012,0,10.925-4.848,10.925-10.925C81.034,51.071,76.121,46.158,70.109,46.158z"/>
</g>
<rect x="79.224" y="256.517" style="fill:#FFC10D;" width="100.59" height="57.018"/>
<path style="fill:#194F82;" d="M190.739,234.667h-6.659v-30.513c0-30.061-24.501-54.562-54.562-54.562s-54.562,24.501-54.562,54.562
	v30.513h-6.659c-6.012,0-10.925,4.848-10.925,10.925v78.869c0,6.012,4.848,10.925,10.925,10.925h122.376
	c6.012,0,10.925-4.848,10.925-10.925v-78.869C201.6,239.644,196.752,234.667,190.739,234.667z M179.814,313.535H79.224v-57.018
	h100.59V313.535z M96.743,204.154c0-18.101,14.675-32.776,32.776-32.776s32.776,14.675,32.776,32.776v30.513H96.873v-30.513H96.743z
	"/>
<g>
</g>
<g>
</g>
<g>
</g>
<g>
</g>
<g>
</g>
<g>
</g>
<g>
</g>
<g>
</g>
<g>
</g>
<g>
</g>
<g>
</g>
<g>
</g>
<g>
</g>
<g>
</g>
<g>
</g>
</svg>
