<?xml version="1.0" encoding="iso-8859-1"?>
<!-- Generator: Adobe Illustrator 19.0.0, SVG Export Plug-In . SVG Version: 6.00 Build 0)  -->
<svg version="1.1" id="Layer_1" xmlns="http://www.w3.org/2000/svg" xmlns:xlink="http://www.w3.org/1999/xlink" x="0px" y="0px"
	 viewBox="0 0 392.598 392.598" style="enable-background:new 0 0 392.598 392.598;" xml:space="preserve">
<path style="fill:#FFFFFF;" d="M120.081,174.158c-11.442,0-22.303,2.069-32.517,5.624c-38.206,13.446-65.745,49.842-65.745,92.703
	c0,54.174,44.154,98.263,98.263,98.263c42.796,0,79.127-27.539,92.638-65.745c3.62-10.214,5.624-21.075,5.624-32.517
	C218.408,218.311,174.255,174.158,120.081,174.158z"/>
<path style="fill:#194F82;" d="M359.855,0H100.881C82.844,0,68.17,14.675,68.17,32.711v131.491
	C27.83,183.596,0.032,224.84,0.032,272.485c0,66.198,53.851,120.113,120.113,120.113c47.58,0,88.889-27.798,108.283-68.073h131.426
	c18.036,0,32.711-14.675,32.711-32.711V32.711C392.566,14.675,377.891,0,359.855,0z M212.784,305.002
	c-13.446,38.271-49.842,65.745-92.638,65.745c-54.174,0-98.263-44.154-98.263-98.263c0-42.796,27.539-79.127,65.745-92.638
	c10.214-3.62,21.075-5.624,32.517-5.624c54.174,0,98.263,44.154,98.263,98.263C218.408,283.863,216.339,294.788,212.784,305.002z
	 M370.78,291.685c0,6.012-4.848,10.925-10.925,10.925H236.315c2.457-9.632,3.879-19.782,3.879-30.125
	c0-66.198-53.851-120.113-120.113-120.113c-10.408,0-20.558,1.293-30.125,3.879v-63.16H370.78V291.685z M370.78,71.305H89.956
	V32.711c0-6.012,4.848-10.925,10.925-10.925h258.974c6.012,0,10.925,4.848,10.925,10.925V71.305L370.78,71.305z"/>
<path style="fill:#56ACE0;" d="M370.78,32.711c0-6.012-4.848-10.925-10.925-10.925H100.881c-6.012,0-10.925,4.848-10.925,10.925
	V71.24H370.78V32.711z"/>
<path style="fill:#FFFFFF;" d="M89.956,156.251c9.632-2.457,19.782-3.879,30.125-3.879c66.198,0,120.113,53.851,120.113,120.113
	c0,10.408-1.293,20.558-3.879,30.125H359.79c6.012,0,10.925-4.848,10.925-10.925V93.091H89.956V156.251z"/>
<path style="fill:#56ACE0;" d="M120.081,348.962c-42.214,0-76.477-34.327-76.477-76.477s34.327-76.477,76.477-76.477
	s76.477,34.327,76.477,76.477S162.295,348.962,120.081,348.962z"/>
<path style="fill:#FFC10D;" d="M348.994,280.824v-81.067h-34.78c-6.012,0-10.925-4.848-10.925-10.925
	c0-6.012,4.848-10.925,10.925-10.925h34.78v-25.6h-60.057c-6.012,0-10.925-4.848-10.925-10.925c0-6.012,4.848-10.925,10.925-10.925
	h60.057v-15.515H111.741v37.818c2.78-0.129,5.56-0.323,8.339-0.323c66.198,0,120.113,53.85,120.113,120.113
	c0,2.78-0.065,5.56-0.323,8.339h109.123V280.824z"/>
<g>
	<path style="fill:#194F82;" d="M255.321,35.62h-7.24c-6.012,0-10.925,4.848-10.925,10.925c0,6.012,4.848,10.925,10.925,10.925h7.24
		c6.012,0,10.925-4.848,10.925-10.925S261.333,35.62,255.321,35.62z"/>
	<path style="fill:#194F82;" d="M297.859,35.62h-7.24c-6.012,0-10.925,4.848-10.925,10.925c0,6.012,4.848,10.925,10.925,10.925h7.24
		c6.012,0,10.925-4.848,10.925-10.925S303.871,35.62,297.859,35.62z"/>
	<path style="fill:#194F82;" d="M340.331,35.62h-7.24c-6.012,0-10.925,4.848-10.925,10.925c0,6.012,4.848,10.925,10.925,10.925h7.24
		c6.012,0,10.925-4.848,10.925-10.925S346.343,35.62,340.331,35.62z"/>
</g>
<path style="fill:#FFC10D;" d="M130.101,256.711l-9.956-18.747l-9.956,18.747c-1.552,2.909-4.396,5.042-7.758,5.56l-20.945,3.685
	l14.739,15.321c2.327,2.392,3.426,5.689,2.909,9.051l-2.909,21.01l19.071-9.244c1.552-0.711,3.168-1.099,4.784-1.099
	c1.616,0,3.232,0.388,4.784,1.099l19.071,9.244l-2.909-21.01c-0.453-3.297,0.646-6.659,2.909-9.051l14.739-15.321l-20.945-3.685
	C134.562,261.689,131.717,259.62,130.101,256.711z"/>
<path style="fill:#194F82;" d="M191.127,255.483c-1.228-3.879-4.461-6.659-8.404-7.37l-35.879-6.4l-17.131-32.065
	c-1.939-3.556-5.56-5.818-9.632-5.818c-4.008,0-7.758,2.263-9.632,5.818l-17.131,32.065l-35.879,6.4
	c-3.943,0.711-7.176,3.556-8.404,7.37c-1.228,3.879-0.323,8.016,2.521,10.925l25.277,26.182l-5.042,36.008
	c-0.517,4.008,1.164,7.952,4.396,10.343c3.232,2.392,7.564,2.78,11.184,1.034l32.711-15.903l32.711,15.903
	c5.236,2.392,9.244,0.388,11.184-1.034c3.232-2.392,4.913-6.335,4.396-10.343l-5.042-36.008l25.277-26.182
	C191.451,263.499,192.356,259.297,191.127,255.483z M144,281.277c-2.327,2.392-3.426,5.689-2.909,9.051l2.909,21.01l-19.071-9.244
	c-1.552-0.711-3.168-1.099-4.784-1.099c-1.616,0-3.232,0.388-4.784,1.099l-19.135,9.244l2.909-21.01
	c0.453-3.297-0.646-6.659-2.909-9.051l-14.739-15.321l20.945-3.685c3.297-0.646,6.077-2.651,7.758-5.56l9.956-18.747l9.956,18.747
	c1.552,2.909,4.396,5.042,7.758,5.56l20.945,3.685L144,281.277z"/>
<g>
</g>
<g>
</g>
<g>
</g>
<g>
</g>
<g>
</g>
<g>
</g>
<g>
</g>
<g>
</g>
<g>
</g>
<g>
</g>
<g>
</g>
<g>
</g>
<g>
</g>
<g>
</g>
<g>
</g>
</svg>
