<?xml version="1.0" encoding="iso-8859-1"?>
<!-- Generator: Adobe Illustrator 19.0.0, SVG Export Plug-In . SVG Version: 6.00 Build 0)  -->
<svg version="1.1" id="Layer_1" xmlns="http://www.w3.org/2000/svg" xmlns:xlink="http://www.w3.org/1999/xlink" x="0px" y="0px"
	 viewBox="0 0 392.598 392.598" style="enable-background:new 0 0 392.598 392.598;" xml:space="preserve">
<path style="fill:#FFFFFF;" d="M21.818,359.822c0,6.012,4.848,10.925,10.925,10.925h327.111c6.012,0,10.925-4.848,10.925-10.925
	v-256.97H21.818V359.822z"/>
<path style="fill:#FFC10D;" d="M370.78,32.711c0-6.012-4.848-10.925-10.925-10.925H32.743c-6.012,0-10.925,4.848-10.925,10.925
	v48.356H370.78L370.78,32.711L370.78,32.711z"/>
<rect x="43.604" y="124.638" style="fill:#56ACE0;" width="305.325" height="224.259"/>
<rect x="73.988" y="276.881" style="fill:#FFFFFF;" width="34.78" height="34.78"/>
<rect x="178.909" y="276.881" style="fill:#FFC10D;" width="34.78" height="34.78"/>
<rect x="283.83" y="276.881" style="fill:#FFFFFF;" width="34.78" height="34.78"/>
<g>
	<path style="fill:#194F82;" d="M359.855,0H32.743C14.707,0,0.032,14.675,0.032,32.711v327.111
		c0,18.101,14.675,32.776,32.711,32.776h327.111c18.036,0,32.711-14.675,32.711-32.711V32.711C392.566,14.675,377.891,0,359.855,0z
		 M21.818,32.711c0-6.012,4.848-10.925,10.925-10.925h327.111c6.012,0,10.925,4.848,10.925,10.925v48.356H21.818V32.711z
		 M370.78,359.822L370.78,359.822c0,6.012-4.848,10.925-10.925,10.925H32.743c-6.012,0-10.925-4.848-10.925-10.925v-256.97H370.78
		L370.78,359.822L370.78,359.822z"/>
	<path style="fill:#194F82;" d="M83.426,196.525h29.608l6.594,15.321h16.743l-30.448-70.723H90.602l-30.513,70.594h16.743
		L83.426,196.525z M98.295,162.133l8.792,20.558H89.374L98.295,162.133z"/>
	<path style="fill:#194F82;" d="M160.356,192.065h9.438c29.156,0,30.901-16.485,30.901-25.212s-1.293-25.729-31.16-25.729h-24.954
		v70.659h15.774V192.065z M160.356,154.699h8.986c14.804,0,15.127,7.176,15.127,11.313c0,4.073-0.323,12.541-13.511,12.541h-10.602
		V154.699z"/>
	<path style="fill:#194F82;" d="M228.816,192.065h9.438c29.156,0,30.901-16.485,30.901-25.212s-1.293-25.729-31.16-25.729h-24.954
		v70.659h15.774L228.816,192.065L228.816,192.065z M228.816,154.699h8.986c14.869,0,15.127,7.176,15.127,11.313
		c0,4.073-0.323,12.541-13.511,12.541h-10.602V154.699z"/>
	<path style="fill:#194F82;" d="M306.974,198.659c-6.465,0.323-13.511-3.297-21.075-10.02l-9.438,11.507
		c8.986,8.275,19.006,12.8,30.19,12.412c22.691-0.776,25.859-14.998,25.859-21.333c0-6.335-1.875-11.119-5.56-14.481
		c-3.685-3.297-8.857-5.818-15.58-7.434c-6.723-1.616-10.99-3.103-12.8-4.331c-1.875-1.228-2.78-2.844-2.78-4.848
		c0-2.069,1.034-6.723,8.469-6.788c6.594-0.129,12.929,2.327,19.006,6.982l7.952-11.507c-10.214-8.339-21.786-9.244-26.505-9.244
		c-7.176,0-25.277,2.844-25.277,20.945c0,6.723,1.939,11.572,5.689,14.739c3.814,3.168,9.826,5.624,18.101,7.628
		c5.172,1.293,8.663,2.521,10.408,3.814c1.745,1.228,2.651,2.909,2.651,5.042C316.218,193.875,315.442,198.206,306.974,198.659z"/>
	<path style="fill:#194F82;" d="M63.063,333.446h56.566c6.012,0,10.925-4.848,10.925-10.925v-56.566
		c0-6.012-4.848-10.925-10.925-10.925H63.063c-6.012,0-10.925,4.848-10.925,10.925v56.566
		C52.202,328.533,57.051,333.446,63.063,333.446z M73.988,276.881h34.78v34.78h-34.78V276.881z"/>
	<path style="fill:#194F82;" d="M224.55,255.095h-56.566c-6.012,0-10.925,4.848-10.925,10.925v56.566
		c0,6.012,4.848,10.925,10.925,10.925h56.566c6.012,0,10.925-4.848,10.925-10.925V266.02
		C235.475,259.943,230.626,255.095,224.55,255.095z M213.689,311.661h-34.78v-34.78h34.78V311.661z"/>
	<path style="fill:#194F82;" d="M262.044,265.956v56.566c0,6.012,4.848,10.925,10.925,10.925h56.566
		c6.012,0,10.925-4.848,10.925-10.925v-56.566c0.065-6.012-4.848-10.925-10.925-10.925H272.97
		C266.958,255.095,262.044,259.943,262.044,265.956z M283.83,276.881h34.78v34.78h-34.78V276.881z"/>
	<path style="fill:#194F82;" d="M77.673,40.533H59.055c-6.012,0-10.925,4.848-10.925,10.925s4.848,10.925,10.925,10.925h18.618
		c6.012,0,10.925-4.848,10.925-10.925S83.685,40.533,77.673,40.533z"/>
	<path style="fill:#194F82;" d="M143.03,40.533h-18.618c-6.012,0-10.925,4.848-10.925,10.925s4.848,10.925,10.925,10.925h18.618
		c6.012,0,10.925-4.848,10.925-10.925S149.107,40.533,143.03,40.533z"/>
	<path style="fill:#194F82;" d="M208.517,40.533h-18.618c-6.012,0-10.925,4.848-10.925,10.925s4.848,10.925,10.925,10.925h18.618
		c6.012,0,10.925-4.848,10.925-10.925C219.378,45.382,214.529,40.533,208.517,40.533z"/>
</g>
<g>
</g>
<g>
</g>
<g>
</g>
<g>
</g>
<g>
</g>
<g>
</g>
<g>
</g>
<g>
</g>
<g>
</g>
<g>
</g>
<g>
</g>
<g>
</g>
<g>
</g>
<g>
</g>
<g>
</g>
</svg>
