<?xml version="1.0" encoding="iso-8859-1"?>
<!-- Generator: Adobe Illustrator 19.0.0, SVG Export Plug-In . SVG Version: 6.00 Build 0)  -->
<svg version="1.1" id="Layer_1" xmlns="http://www.w3.org/2000/svg" xmlns:xlink="http://www.w3.org/1999/xlink" x="0px" y="0px"
	 viewBox="0 0 392.598 392.598" style="enable-background:new 0 0 392.598 392.598;" xml:space="preserve">
<path style="fill:#FFFFFF;" d="M359.855,21.786H32.743c-6.012,0-10.925,4.848-10.925,10.925v327.111
	c0,6.012,4.848,10.925,10.925,10.925h327.111c6.012,0,10.925-4.848,10.925-10.925V32.711
	C370.78,26.699,365.867,21.786,359.855,21.786z"/>
<path style="fill:#FFC10D;" d="M43.604,73.568v188.38h52.622c6.012,0,10.925,4.848,10.925,10.925
	c0,6.012-4.848,10.925-10.925,10.925H43.604v30.319h19.911c6.012,0,10.925,4.849,10.925,10.925c0,6.012-4.848,10.925-10.925,10.925
	H43.604v13.123h305.325V73.697H43.604V73.568z"/>
<g>
	<path style="fill:#56ACE0;" d="M180.396,211.653c13.77-10.15,40.016-49.325,5.042-87.337
		c-20.558-22.432-45.77-17.002-47.968-16.743l21.786,21.786c14.222,14.222,14.222,37.301,0,51.523
		c-6.853,6.853-16.097,10.667-25.794,10.667s-18.941-3.814-25.794-10.667L85.883,159.16c-2.263,19.135,5.172,38.529,20.687,51.523
		C116.849,219.475,146.844,236.218,180.396,211.653z"/>
	<path style="fill:#56ACE0;" d="M302.966,303.968l-92.768-92.703c0.065,2.392-18.295,20.881-20.558,20.622
		c-0.065,0-0.065,0.065-0.129,0.129l92.703,92.703c5.56,5.56,15.192,5.56,20.687,0C308.655,318.966,308.655,309.721,302.966,303.968
		z"/>
</g>
<g>
	<path style="fill:#194F82;" d="M359.855,0H32.743C14.707,0,0.032,14.675,0.032,32.711v327.111
		c0,18.101,14.675,32.776,32.711,32.776h327.111c18.036,0,32.711-14.675,32.711-32.711V32.711C392.566,14.675,377.891,0,359.855,0z
		 M359.855,370.747H32.743c-6.012,0-10.925-4.848-10.925-10.925V32.711c0-6.012,4.848-10.925,10.925-10.925h327.111
		c6.012,0,10.925,4.848,10.925,10.925v327.111h0.065C370.78,365.899,365.931,370.747,359.855,370.747z"/>
	<path style="fill:#194F82;" d="M291.976,49.39c0-6.012-4.848-10.925-10.925-10.925H55.693c-6.012,0-10.925,4.848-10.925,10.925
		c0,6.012,4.848,10.925,10.925,10.925h225.293C287.063,60.251,291.976,55.402,291.976,49.39z"/>
	<path style="fill:#194F82;" d="M336.905,38.465h-9.503c-6.012,0-10.925,4.848-10.925,10.925c0,6.012,4.784,10.925,10.796,10.925
		h9.568c6.012,0,10.925-4.848,10.925-10.925S342.982,38.465,336.905,38.465z"/>
	<path style="fill:#194F82;" d="M220.347,190.448c2.133-6.594,14.933-45.382-19.459-81.584
		c-14.739-15.515-47.063-33.552-88.695-16.937c-3.297,1.293-5.689,4.396-6.4,7.952s0.453,7.176,3.038,9.762l35.103,35.103
		c5.689,5.689,5.689,14.998,0,20.687c-5.56,5.56-15.192,5.56-20.687,0l-35.232-35.103c-2.521-2.521-6.206-3.685-9.762-3.038
		c-3.556,0.711-6.594,3.103-7.952,6.4c-14.222,32.905-5.236,70.465,22.174,93.608c34.715,29.156,68.396,17.261,76.283,14.675
		l98.004,98.004c22.238,18.747,42.214,8.598,51.523,0c14.869-13.446,14.222-37.236,0-51.459L220.347,190.448z M180.461,211.782
		c-33.552,24.566-63.547,7.822-73.891-0.905c-15.58-13.123-23.014-32.517-20.816-51.717l21.851,21.851
		c6.853,6.853,16.097,10.667,25.794,10.667c9.762,0,18.941-3.814,25.794-10.667c14.222-14.222,14.222-37.301,0-51.523
		l-21.721-21.786c2.133-0.259,27.345-5.624,47.968,16.743C220.412,162.521,194.23,201.697,180.461,211.782z M302.966,324.59
		c-5.56,5.624-15.192,5.624-20.687,0.065l-92.768-92.703c0.065-0.065,0.065-0.129,0.129-0.129
		c2.327,0.323,20.687-18.23,20.558-20.622l92.768,92.703C308.655,309.657,308.655,318.901,302.966,324.59z"/>
</g>
<g>
</g>
<g>
</g>
<g>
</g>
<g>
</g>
<g>
</g>
<g>
</g>
<g>
</g>
<g>
</g>
<g>
</g>
<g>
</g>
<g>
</g>
<g>
</g>
<g>
</g>
<g>
</g>
<g>
</g>
</svg>
