<?xml version="1.0" encoding="iso-8859-1"?>
<!-- Generator: Adobe Illustrator 19.0.0, SVG Export Plug-In . SVG Version: 6.00 Build 0)  -->
<svg version="1.1" id="Layer_1" xmlns="http://www.w3.org/2000/svg" xmlns:xlink="http://www.w3.org/1999/xlink" x="0px" y="0px"
	 viewBox="0 0 392.533 392.533" style="enable-background:new 0 0 392.533 392.533;" xml:space="preserve">
<path style="fill:#FFC10D;" d="M359.822,156.832H334.61v33.875c0,18.036-14.675,32.711-32.711,32.711h-80.356
	c-18.036,0-32.711-14.675-32.711-32.711v-33.875h-25.277c-6.012,0-10.925,4.848-10.925,10.925v192
	c0,6.012,4.848,10.925,10.925,10.925h196.396c6.012,0,10.925-4.849,10.925-10.925v-192
	C370.747,161.81,365.834,156.832,359.822,156.832z"/>
<path style="fill:#FFFFFF;" d="M130.715,292.655V167.758c0-18.036,14.675-32.711,32.711-32.711h129.228V32.711
	c0-6.012-4.848-10.925-10.925-10.925H32.711c-6.012,0-10.925,4.848-10.925,10.925v248.954c0,6.012,4.848,10.925,10.925,10.925
	h98.069v0.065H130.715z"/>
<g>
	<path style="fill:#194F82;" d="M359.822,135.046h-45.446V32.711C314.376,14.675,299.701,0,281.665,0H32.711
		C14.675,0,0,14.675,0,32.711v248.954c0,18.036,14.675,32.711,32.711,32.711h98.004v45.446c0,18.036,14.675,32.711,32.711,32.711
		h196.396c18.036,0,32.711-14.675,32.711-32.711v-192C392.533,149.721,377.859,135.046,359.822,135.046z M370.747,359.822
		c0,6.012-4.848,10.925-10.925,10.925H163.426c-6.012,0-10.925-4.848-10.925-10.925V167.758c0-6.012,4.848-10.925,10.925-10.925
		h25.277v33.875c0,18.036,14.675,32.711,32.711,32.711h80.356c18.036,0,32.711-14.675,32.711-32.711v-33.875h25.277
		c6.012,0,10.925,4.848,10.925,10.925v192.065H370.747z M21.786,281.665V32.711c0-6.012,4.848-10.925,10.925-10.925h248.954
		c6.012,0,10.925,4.848,10.925,10.925v102.4H163.426c-18.036,0-32.711,14.675-32.711,32.711V292.59H32.711
		C26.699,292.655,21.786,287.677,21.786,281.665z M210.489,190.772v-33.939h102.206v33.875c0,6.012-4.848,10.925-10.925,10.925
		h-80.291C215.402,201.697,210.489,196.784,210.489,190.772z"/>
	<path style="fill:#194F82;" d="M261.624,234.343c-22.949,0-41.632,18.683-41.632,41.632s18.683,41.697,41.632,41.697
		s41.697-18.683,41.697-41.697C303.321,253.091,284.574,234.343,261.624,234.343z M261.624,295.952
		c-10.99,0-19.846-8.857-19.846-19.846s8.857-19.846,19.846-19.846c10.99,0,19.846,8.857,19.846,19.846
		C281.471,286.966,272.614,295.952,261.624,295.952z"/>
</g>
<g>
	<path style="fill:#FFFFFF;" d="M301.834,201.697c6.012,0,10.925-4.848,10.925-10.925v-33.939H210.489v33.875
		c0,6.012,4.848,10.925,10.925,10.925h80.42V201.697z"/>
	<path style="fill:#FFFFFF;" d="M261.624,256.129c-10.99,0-19.846,8.857-19.846,19.846s8.857,19.846,19.846,19.846
		c10.99,0,19.846-8.857,19.846-19.846C281.471,265.115,272.614,256.129,261.624,256.129z"/>
</g>
<g>
	<path style="fill:#194F82;" d="M61.673,32H48.291c-6.012,0-10.925,4.848-10.925,10.925s4.848,10.925,10.925,10.925h13.382
		c6.012,0,10.925-4.848,10.925-10.925C72.533,36.848,67.685,32,61.673,32z"/>
	<path style="fill:#194F82;" d="M111.838,32H98.457c-6.012,0-10.925,4.848-10.925,10.925s4.848,10.925,10.925,10.925h13.382
		c6.012,0,10.925-4.848,10.925-10.925C122.699,36.848,117.851,32,111.838,32z"/>
	<path style="fill:#194F82;" d="M282.764,42.861c0-6.012-4.849-10.925-10.925-10.925H150.497c-6.012,0-10.925,4.848-10.925,10.925
		s4.848,10.925,10.925,10.925h121.341C277.851,53.786,282.764,48.937,282.764,42.861z"/>
</g>
<path style="fill:#56ACE0;" d="M150.497,53.786c-5.818,0-10.408-4.461-10.796-10.214h-17.067
	c-0.388,5.689-5.042,10.214-10.796,10.214H98.457c-5.818,0-10.408-4.461-10.796-10.214H72.533
	c-0.388,5.689-5.042,10.214-10.796,10.214H48.291c-1.681,0-3.232-0.388-4.719-1.099v54.756h13.964h21.786
	c6.012,0,10.925,4.848,10.925,10.925c0,6.012-4.848,10.925-10.925,10.925H57.665H43.572v13.899h10.02
	c6.012,0,10.925,4.848,10.925,10.925c0,6.012-4.848,10.925-10.925,10.925h-10.02v105.697h87.079V167.758
	c0-18.036,14.675-32.711,32.711-32.711h107.313V53.786H150.497z"/>
<path style="fill:#194F82;" d="M288.194,193.164c6.012,0,10.925-4.848,10.925-10.925v-5.947c0-6.012-4.848-10.925-10.925-10.925
	c-6.012,0-10.925,4.848-10.925,10.925v5.947C277.333,188.251,282.182,193.164,288.194,193.164z"/>
<g>
</g>
<g>
</g>
<g>
</g>
<g>
</g>
<g>
</g>
<g>
</g>
<g>
</g>
<g>
</g>
<g>
</g>
<g>
</g>
<g>
</g>
<g>
</g>
<g>
</g>
<g>
</g>
<g>
</g>
</svg>
